<svg xmlns="http://www.w3.org/2000/svg" xmlns:xlink="http://www.w3.org/1999/xlink" width="18" height="18" viewBox="0 0 18 18">
  <defs>
    <clipPath id="clip-path">
      <rect id="사각형_2341" data-name="사각형 2341" width="18" height="18" rx="4" transform="translate(1577 119)" fill="#fff"/>
    </clipPath>
  </defs>
  <g id="마스크_그룹_4" data-name="마스크 그룹 4" transform="translate(-1577 -119)" clip-path="url(#clip-path)">
    <g id="South_Korea" data-name="South Korea" transform="translate(1575.297 117.298)">
      <rect id="사각형_2318" data-name="사각형 2318" width="21.407" height="21.407" fill="#fff"/>
      <g id="Circle" transform="translate(7.761 7.761)">
        <path id="패스_3711" data-name="패스 3711" d="M59.173,71.35a1.471,1.471,0,1,0,2.449,1.632,1.471,1.471,0,1,1,2.448,1.632,2.942,2.942,0,1,1-4.9-3.265Z" transform="translate(-58.678 -70.04)" fill="#0047a0"/>
        <path id="패스_3712" data-name="패스 3712" d="M66.213,63.259a1.471,1.471,0,1,0-2.448-1.632,1.471,1.471,0,0,1-2.449-1.632,2.942,2.942,0,1,1,4.9,3.265Z" transform="translate(-60.822 -58.683)" fill="#cd2e3a"/>
      </g>
      <rect id="사각형_2319" data-name="사각형 2319" width="1.349" height="0.49" transform="matrix(0.555, -0.832, 0.832, 0.555, 14.172, 14.783)"/>
      <rect id="사각형_2320" data-name="사각형 2320" width="1.349" height="0.49" transform="matrix(0.555, -0.832, 0.832, 0.555, 15.055, 13.457)"/>
      <rect id="사각형_2321" data-name="사각형 2321" width="1.349" height="0.49" transform="matrix(0.555, -0.832, 0.832, 0.555, 14.784, 15.192)"/>
      <rect id="사각형_2322" data-name="사각형 2322" width="1.349" height="0.49" transform="matrix(0.555, -0.832, 0.832, 0.555, 15.668, 13.865)"/>
      <rect id="사각형_2323" data-name="사각형 2323" width="1.349" height="0.49" transform="matrix(0.555, -0.832, 0.832, 0.555, 13.559, 14.375)"/>
      <rect id="사각형_2324" data-name="사각형 2324" width="1.349" height="0.49" transform="matrix(0.555, -0.832, 0.832, 0.555, 14.443, 13.049)"/>
      <rect id="사각형_2325" data-name="사각형 2325" width="0.49" height="2.942" transform="matrix(0.832, -0.555, 0.555, 0.832, 5.807, 12.199)"/>
      <rect id="사각형_2326" data-name="사각형 2326" width="0.49" height="2.942" transform="matrix(0.832, -0.555, 0.555, 0.832, 4.583, 13.016)"/>
      <rect id="사각형_2327" data-name="사각형 2327" width="0.488" height="1.343" transform="matrix(0.834, -0.552, 0.552, 0.834, 6.013, 13.932)"/>
      <rect id="사각형_2328" data-name="사각형 2328" width="0.49" height="1.349" transform="matrix(0.832, -0.555, 0.555, 0.832, 5.196, 12.607)"/>
      <rect id="사각형_2329" data-name="사각형 2329" width="0.49" height="2.942" transform="matrix(0.832, -0.555, 0.555, 0.832, 14.172, 6.623)"/>
      <rect id="사각형_2330" data-name="사각형 2330" width="0.49" height="1.349" transform="matrix(0.832, -0.555, 0.555, 0.832, 15.668, 7.541)"/>
      <rect id="사각형_2331" data-name="사각형 2331" width="0.49" height="1.349" transform="matrix(0.832, -0.555, 0.555, 0.832, 14.784, 6.215)"/>
      <rect id="사각형_2332" data-name="사각형 2332" width="0.49" height="1.349" transform="matrix(0.832, -0.555, 0.555, 0.832, 14.443, 8.358)"/>
      <rect id="사각형_2333" data-name="사각형 2333" width="0.49" height="1.349" transform="matrix(0.832, -0.555, 0.555, 0.832, 13.56, 7.03)"/>
      <rect id="사각형_2334" data-name="사각형 2334" width="2.942" height="0.49" transform="matrix(0.555, -0.832, 0.832, 0.555, 5.807, 9.207)"/>
      <rect id="사각형_2335" data-name="사각형 2335" width="2.942" height="0.49" transform="matrix(0.555, -0.832, 0.832, 0.555, 5.195, 8.799)"/>
      <rect id="사각형_2336" data-name="사각형 2336" width="2.929" height="0.488" transform="matrix(0.552, -0.834, 0.834, 0.552, 4.56, 8.371)"/>
    </g>
  </g>
</svg>
