<svg xmlns="http://www.w3.org/2000/svg" width="313.001" height="38.111" viewBox="0 0 313.001 38.111">
  <g id="그룹_10205" data-name="그룹 10205" transform="translate(-100 -61.889)">
    <g id="그룹_9841" data-name="그룹 9841" transform="translate(-156 240.889)">
      <path id="패스_2456" data-name="패스 2456" d="M6.33,12.17h9.287c5.832,0,10.141,1.829,8.58,7.649-1.511,5.577-7.012,8.038-12.634,8.038H8.471l-2.1,7.789H0Zm6.113,11.225c3.1,0,4.94-1.275,5.565-3.589s-.854-3.187-3.907-3.187H11.474l-1.8,6.776Z" transform="translate(256 -183.413)" fill="#e60012"/>
      <path id="패스_2457" data-name="패스 2457" d="M37.471,20.574h5.15L42.213,23.7h.14a9.6,9.6,0,0,1,6.725-3.563,5.539,5.539,0,0,1,2.352.376l-2.371,4.825a8.21,8.21,0,0,0-2.129-.28c-1.492,0-3.538.848-5.246,3.187L38.918,38.531h-6.3Z" transform="translate(244.173 -186.297)" fill="#e60012"/>
      <path id="패스_2458" data-name="패스 2458" d="M57.141,29.567A13.08,13.08,0,0,1,69.29,20.14c5.832,0,7.649,3.754,6.374,8.669a11.155,11.155,0,0,1-.931,2.4H62.814c-.089,2.46,1.555,3.506,4.118,3.506a10.887,10.887,0,0,0,4.577-1.141l1.186,3.378a17.389,17.389,0,0,1-7.808,2.046C59.085,38.963,55.541,35.5,57.141,29.567ZM70.6,27.547c.491-1.8-.045-3.117-2.358-3.117A5.01,5.01,0,0,0,63.7,27.547Z" transform="translate(235.421 -186.302)" fill="#e60012"/>
      <path id="패스_2459" data-name="패스 2459" d="M87.3,12.17h6.725l.14,10.69c.1,2.55-.051,4.953.038,7.509h.178c1.434-2.55,2.664-4.985,4.092-7.509l5.845-10.69h6.47L96.517,35.646H88.906Z" transform="translate(224.347 -183.413)" fill="#e60012"/>
      <path id="패스_2460" data-name="패스 2460" d="M122.794,10.77a4.39,4.39,0,0,1,4.411-2.9c2.135,0,3.27,1.2,2.811,2.9a4.341,4.341,0,0,1-4.366,2.868C123.553,13.639,122.342,12.415,122.794,10.77Zm-.988,5.361h6.3l-4.838,17.956H117Z" transform="translate(213.578 -181.854)" fill="#e60012"/>
      <path id="패스_2461" data-name="패스 2461" d="M132.481,29.567A13.08,13.08,0,0,1,144.63,20.14c5.839,0,7.649,3.754,6.374,8.669a10.836,10.836,0,0,1-.931,2.4H138.16c-.1,2.46,1.555,3.474,4.111,3.474a10.887,10.887,0,0,0,4.577-1.141l1.192,3.378a17.433,17.433,0,0,1-7.815,2.046C134.425,38.963,130.881,35.5,132.481,29.567Zm13.462-2.021c.484-1.8-.051-3.117-2.358-3.117a5.017,5.017,0,0,0-4.538,3.117Z" transform="translate(208.105 -186.302)" fill="#e60012"/>
      <path id="패스_2462" data-name="패스 2462" d="M163.66,20.83h6.259l-.351,8.038c-.159,1.772-.427,3.57-.593,5.367h.178c.835-1.8,1.651-3.627,2.62-5.367l4.213-8.038h5.475v8.038c0,1.772-.14,3.57-.2,5.367h.178c.8-1.8,1.466-3.6,2.333-5.367l3.914-8.038h5.871l-9.593,17.956h-7.394l.14-6.846c.057-1.67.178-3.308.351-5.265h-.178c-.848,1.957-1.574,3.6-2.384,5.265l-3.48,6.846H163.8Z" transform="translate(196.66 -186.553)" fill="#e60012"/>
      <path id="패스_2463" data-name="패스 2463" d="M210.586,29.428l1.855-6.9H209.7l1.122-4.162,3.155-.223,1.989-4.73h5.265l-1.275,4.73h4.768l-1.186,4.385H218.77l-1.842,6.84c-.542,1.989.319,2.779,1.81,2.779a8.981,8.981,0,0,0,1.912-.319l-.1,4.041a18.88,18.88,0,0,1-4.768.637C210.733,36.523,209.432,33.686,210.586,29.428Z" transform="translate(179.967 -183.862)" fill="#e60012"/>
      <path id="패스_2464" data-name="패스 2464" d="M226.72,45.332,229,41.074a6.974,6.974,0,0,0,1.275.223,4.4,4.4,0,0,0,3.958-2.148l.529-.912L231.711,20.83h6.374l.695,7.445c.159,1.638.14,3.315.2,5.1h.172c.854-1.7,1.766-3.372,2.69-5.1l4.354-7.445H252.2L240.431,38.786c-3.232,4.6-6.017,6.871-10.836,6.871A9.861,9.861,0,0,1,226.72,45.332Z" transform="translate(173.796 -186.553)" fill="#e60012"/>
      <path id="패스_2465" data-name="패스 2465" d="M257.416,0a4.3,4.3,0,1,0,4.3,4.3A4.3,4.3,0,0,0,257.416,0Zm2.339,7.19-1.5-2.339a1.785,1.785,0,0,0,.956-.542,1.536,1.536,0,0,0,.338-1.045,1.371,1.371,0,0,0-.542-1.135,2.55,2.55,0,0,0-1.574-.421H255.7V7.19h.708V4.966h1.179l1.275,2.225h.9a1.782,1.782,0,1,0-.006,0ZM257.939,4.4a3.537,3.537,0,0,1-.682.057h-.848V2.244h1.1a2.192,2.192,0,0,1,.51.057,1.23,1.23,0,0,1,.414.185.886.886,0,0,1,.287.325.975.975,0,0,1,.1.472,1.37,1.37,0,0,1-.1.567.784.784,0,0,1-.293.363,1.319,1.319,0,0,1-.484.191Z" transform="translate(164.224 -179)" fill="#e60012"/>
    </g>
    <g id="그룹_10204" data-name="그룹 10204" transform="translate(-63.039 115.335)">
      <path id="패스_2466" data-name="패스 2466" d="M192.948,59.625c0-.428-.351-.565-.8-.565h-.753v1.875h.437v-.711h.3l.445.711h.471l-.505-.77A.539.539,0,0,0,192.948,59.625Zm-.856.3h-.274v-.574h.274c.274,0,.428.068.428.274s-.146.3-.419.3Z" transform="translate(282.176 -102.27)" fill="#00afec"/>
      <path id="패스_2467" data-name="패스 2467" d="M191.932,58.1a1.763,1.763,0,1,0,1.755,1.712A1.763,1.763,0,0,0,191.932,58.1Zm0,3.262A1.507,1.507,0,1,1,193,60.923,1.507,1.507,0,0,1,191.932,61.362Z" transform="translate(282.353 -102.132)" fill="#00afec"/>
      <path id="패스_2468" data-name="패스 2468" d="M185.273,66.209a29.336,29.336,0,0,0-3.553-.419c.043,1.07.06,2.14.06,3.21s0,2.192-.051,3.279a29.635,29.635,0,0,0,3.484-.231,2.106,2.106,0,0,0,1.481-.942,3.835,3.835,0,0,0,.394-1.875C187.1,67.8,186.694,66.552,185.273,66.209Z" transform="translate(283.568 -103.239)" fill="#00afec"/>
      <path id="패스_2469" data-name="패스 2469" d="M184.635,60.118a10.821,10.821,0,1,0,0,15.315A10.821,10.821,0,0,0,184.635,60.118Z" transform="translate(285.806 -101.967)" fill="#00afec"/>
      <path id="패스_2470" data-name="패스 2470" d="M184.8,64.351a24.911,24.911,0,0,0-5.445-.651q.051,2.491.051,4.982v5.136a37.667,37.667,0,0,0,5.368-.394c2.217-.437,2.868-2.046,2.851-4.366C187.561,66.885,186.91,64.933,184.8,64.351Zm1.712,6.472a2.106,2.106,0,0,1-1.472.925,29.62,29.62,0,0,1-3.476.231c0-1.087.051-2.183.043-3.279s0-2.14-.06-3.21a29.335,29.335,0,0,1,3.553.419c1.421.342,1.823,1.592,1.823,3.039a3.938,3.938,0,0,1-.394,1.858Z" transform="translate(283.907 -102.938)" fill="#fff"/>
      <path id="패스_2471" data-name="패스 2471" d="M176.985,65.561c-.077-1.447-.659-1.763-1.858-1.712s-4.417.5-5.385,1.43a10.556,10.556,0,0,0-.274,1.276c1.13-.711,4.366-.967,5.53-1.036,0,.7-.043,1.412-.051,2.114a38.609,38.609,0,0,0-4.443.308v1.567c1.481,0,2.962-.068,4.451-.068v2.568a34.765,34.765,0,0,1-5.556-.471c.068.454.146.907.257,1.353.942.565,4.554.916,5.539.856,1.241,0,1.712-.5,1.755-1.909V67.128C176.95,66.6,177.01,66.083,176.985,65.561Z" transform="translate(285.341 -102.959)" fill="#fff"/>
      <path id="패스_2472" data-name="패스 2472" d="M103.1,77.9c-.094.248-.18.522-.274.788h0c-.094-.265-.18-.539-.274-.788l-.77-1.909h-1.01v4.075h.856V78.353c0-.394-.077-.959-.12-1.344h0l.36.959.7,1.712h.514l.7-1.712.368-.959h0c0,.385-.111.95-.111,1.344v1.712h.856V76h-1Z" transform="translate(295.219 -104.707)" fill="#fff"/>
      <path id="패스_2473" data-name="패스 2473" d="M108.152,77.06a1.618,1.618,0,1,0,1.644,1.627,1.584,1.584,0,0,0-1.644-1.627Zm0,2.568c-.462,0-.719-.377-.719-.95s.257-.967.719-.967.728.377.728.967-.231.959-.728.959Z" transform="translate(294.386 -104.861)" fill="#fff"/>
      <path id="패스_2474" data-name="패스 2474" d="M112.036,77.685h0l-.068-.548h-.728v3.082h.856V78.378a.856.856,0,0,1,.788-.608,1.438,1.438,0,0,1,.351.051l.163-.7a1.173,1.173,0,0,0-.4-.06A1.19,1.19,0,0,0,112.036,77.685Z" transform="translate(293.712 -104.861)" fill="#fff"/>
      <path id="패스_2475" data-name="패스 2475" d="M116.159,77.06a1.661,1.661,0,0,0-1,.394h0l-.06-.317h-.728v4.28h.856v-1.49a1.344,1.344,0,0,0,.856.334,1.524,1.524,0,0,0,1.455-1.712A1.4,1.4,0,0,0,116.159,77.06Zm-.308,2.568a1.01,1.01,0,0,1-.625-.231V78.044a1,1,0,0,1,.676-.317c.471,0,.676.325.676.916S116.262,79.628,115.851,79.628Z" transform="translate(293.262 -104.861)" fill="#fff"/>
      <path id="패스_2476" data-name="패스 2476" d="M120.855,76.853a1.626,1.626,0,0,0-1.079.454V75.62h-.856v4.392h.856V77.889a1.036,1.036,0,0,1,.719-.342c.334,0,.479.171.479.642v1.823h.856V78.085C121.908,77.315,121.557,76.853,120.855,76.853Z" transform="translate(292.607 -104.654)" fill="#fff"/>
      <path id="패스_2477" data-name="패스 2477" d="M124.836,77.06a1.619,1.619,0,1,0,.1,3.236,2.277,2.277,0,0,0,1.2-.342l-.308-.5a1.515,1.515,0,0,1-.77.214.856.856,0,0,1-.942-.77h2.106a1.266,1.266,0,0,0,0-.368,1.344,1.344,0,0,0-1.387-1.472Zm-.736,1.31a.745.745,0,0,1,.753-.685.6.6,0,0,1,.642.685Z" transform="translate(291.981 -104.861)" fill="#fff"/>
      <path id="패스_2478" data-name="패스 2478" d="M129.659,79.23a.856.856,0,0,1-.7.385c-.325,0-.471-.163-.471-.642V77.15h-.856v1.926c0,.77.317,1.233,1.053,1.233a1.4,1.4,0,0,0,1.087-.522h0l.068.445h.736V77.15h-.916Z" transform="translate(291.353 -104.874)" fill="#fff"/>
      <path id="패스_2479" data-name="패스 2479" d="M133.5,78.4c-.351-.12-.693-.205-.693-.437s.146-.291.454-.291a1.37,1.37,0,0,1,.736.257l.4-.488a2.046,2.046,0,0,0-1.164-.377c-.762,0-1.267.394-1.267.95s.505.745.933.856.711.24.711.462-.146.334-.5.334a1.626,1.626,0,0,1-.916-.342l-.4.505a2.26,2.26,0,0,0,1.3.437c.856,0,1.361-.437,1.361-.976S133.957,78.541,133.5,78.4Z" transform="translate(290.753 -104.861)" fill="#fff"/>
      <path id="패스_2480" data-name="패스 2480" d="M139.251,79.407c-.711,0-1.173-.539-1.173-1.421a1.233,1.233,0,0,1,1.19-1.4,1.181,1.181,0,0,1,.856.342l.479-.522a1.943,1.943,0,0,0-1.327-.522,2.029,2.029,0,0,0-2.1,2.132,2.055,2.055,0,0,0,3.51,1.5L140.21,79a1.327,1.327,0,0,1-.959.4Z" transform="translate(289.979 -104.691)" fill="#fff"/>
      <path id="패스_2481" data-name="패스 2481" d="M143.412,77.06a1.618,1.618,0,1,0,1.644,1.661,1.575,1.575,0,0,0-1.644-1.661Zm0,2.568c-.462,0-.728-.377-.728-.95s.265-.967.728-.967.728.377.728.967-.257.959-.728.959Z" transform="translate(289.311 -104.861)" fill="#fff"/>
      <path id="패스_2482" data-name="패스 2482" d="M146.905,79.61a.531.531,0,0,0-.565.522.565.565,0,0,0,1.121,0,.531.531,0,0,0-.556-.522Z" transform="translate(288.66 -105.228)" fill="#fff"/>
      <path id="패스_2483" data-name="패스 2483" d="M149.223,79.61c-.317,0-.582.18-.582.471a.514.514,0,0,0,.565.479h.051c0,.325-.257.6-.728.762l.188.437a1.43,1.43,0,0,0,1.156-1.361C149.874,79.944,149.634,79.61,149.223,79.61Z" transform="translate(288.345 -105.228)" fill="#fff"/>
      <path id="패스_2484" data-name="패스 2484" d="M153.637,76h-.907v4.066h2.739v-.685h-1.832Z" transform="translate(287.74 -104.709)" fill="#fff"/>
      <path id="패스_2485" data-name="패스 2485" d="M157.989,79.523c-.308,0-.462-.163-.462-.514V77.64h.856v-.633h-.856V76.15h-.753l-.1.856h-.531V77.6h.488v1.37a1.01,1.01,0,0,0,1.1,1.2,2.568,2.568,0,0,0,.719-.111l-.146-.591a1.053,1.053,0,0,1-.317.06Z" transform="translate(287.249 -104.73)" fill="#fff"/>
      <path id="패스_2486" data-name="패스 2486" d="M161.445,76.7v.488a1.216,1.216,0,0,0-.856-.334,1.5,1.5,0,0,0-1.43,1.627c0,1.01.548,1.609,1.4,1.609a1.447,1.447,0,0,0,.95-.4h0l.068.325h.728V75.62h-.856Zm0,2.406a.77.77,0,0,1-.633.317c-.445,0-.7-.317-.7-.959s.317-.942.7-.942a.95.95,0,0,1,.634.231Z" transform="translate(286.816 -104.654)" fill="#fff"/>
      <path id="패스_2487" data-name="패스 2487" d="M164.516,79.61a.522.522,0,0,0-.556.522.556.556,0,1,0,.556-.522Z" transform="translate(286.124 -105.228)" fill="#fff"/>
      <path id="패스_2488" data-name="패스 2488" d="M60.72,68.118a11.009,11.009,0,0,0,2.517,7.02V61.09a11.009,11.009,0,0,0-2.517,7.028Z" transform="translate(300.984 -102.563)" fill="#fff"/>
      <path id="패스_2489" data-name="패스 2489" d="M66.83,58.082l5.539,10.273L77.9,58.082a10.444,10.444,0,0,0-5.556-1.592,10.555,10.555,0,0,0-5.513,1.592Z" transform="translate(300.105 -101.9)" fill="#fff"/>
      <path id="패스_2490" data-name="패스 2490" d="M72.418,74.624a1.472,1.472,0,0,1-1.31-.856L67.17,66.44V78.425a10.53,10.53,0,0,0,10.5,0V66.44l-3.938,7.328a1.481,1.481,0,0,1-1.318.856Z" transform="translate(300.056 -103.333)" fill="#fff"/>
      <path id="패스_2491" data-name="패스 2491" d="M92.965,63.777h-.248a2.465,2.465,0,0,0-.505.06,2.116,2.116,0,0,0-.248.051l-.283.086a4.529,4.529,0,0,0-1.181.556c-.214.128-.394.257-.531.351a1.456,1.456,0,0,1-.2.146l-.086.068h0a3.262,3.262,0,0,1-2.431.616h-.12a2.39,2.39,0,0,1-.334-.086h-.086l-.154-.06a5.248,5.248,0,0,1-2.286-2.371h0A10.769,10.769,0,0,0,83,61.2V75.077A11.462,11.462,0,0,0,84.276,73.1h0a5.248,5.248,0,0,1,2.286-2.371l.154-.06H86.8l.334-.094h.12a3.253,3.253,0,0,1,2.431.608h0l.086.068.2.146a6.355,6.355,0,0,0,.531.351,4.554,4.554,0,0,0,1.181.565l.283.086a2.116,2.116,0,0,0,.248.051,2.466,2.466,0,0,0,.505.06h.248a4.357,4.357,0,0,0,0-8.706Zm.128,6.575a2.217,2.217,0,1,1,2.217-2.217A2.217,2.217,0,0,1,93.093,70.351Z" transform="translate(297.777 -102.578)" fill="#fff"/>
      <path id="패스_2492" data-name="패스 2492" d="M132.065,72.017V65.109a.976.976,0,1,0-1.952,0v2.474H125.14V65.109a.984.984,0,1,0-1.96,0v6.908a.984.984,0,1,0,1.96,0V69.543h4.974v2.474a.976.976,0,1,0,1.952,0Z" transform="translate(291.994 -102.986)" fill="#fff"/>
      <path id="패스_2493" data-name="패스 2493" d="M139.421,73.017h1.353a.984.984,0,0,0,0-1.96H136.39v-1.5h4.383a.984.984,0,0,0,0-1.96H136.39V66.1h4.383a.984.984,0,0,0,0-1.96h-5.368a.976.976,0,0,0-.976.984v6.908a.984.984,0,0,0,.976.984h4.015Z" transform="translate(290.374 -103.002)" fill="#fff"/>
      <path id="패스_2494" data-name="패스 2494" d="M116.859,69.858h1.173a2.859,2.859,0,0,0,0-5.718h-5.2a.976.976,0,0,0-.976.984v6.908a.976.976,0,1,0,1.952,0V69.858h3.056ZM113.8,67.9V66.1h4.229a.9.9,0,0,1,0,1.8Z" transform="translate(293.623 -103.002)" fill="#fff"/>
      <path id="패스_2495" data-name="패스 2495" d="M160.048,67.714h-3.082a.711.711,0,1,1,0-1.413h3.784a.976.976,0,1,0,0-1.952h-3.9a2.662,2.662,0,0,0,.111,5.316h3.082a.711.711,0,1,1,0,1.421h-4.34a.984.984,0,1,0,0,1.96h4.34a2.671,2.671,0,0,0,0-5.333Z" transform="translate(287.502 -103.032)" fill="#fff"/>
      <path id="패스_2496" data-name="패스 2496" d="M106.821,64.128h-5.2a.976.976,0,0,0-.976.984v6.908a.976.976,0,1,0,1.952,0V69.744h2.44l2.114,2.825a1,1,0,0,0,.8.4.984.984,0,0,0,.779-1.567l-1.241-1.712a2.851,2.851,0,0,0-.659-5.633Zm0,3.75h-4.28V66.089h4.229a.895.895,0,0,1,0,1.789Z" transform="translate(295.238 -102.99)" fill="#fff"/>
      <path id="패스_2497" data-name="패스 2497" d="M152.338,66.865V65.153h0a.984.984,0,1,0-1.96,0h0v3.964a1.96,1.96,0,0,1-1.96,1.96h-.728a1.969,1.969,0,0,1-1.96-1.96v-4h0a.984.984,0,1,0-1.96,0h0v3.964A3.929,3.929,0,0,0,147.69,73h.728a3.929,3.929,0,0,0,3.921-3.921Z" transform="translate(289.031 -102.988)" fill="#fff"/>
    </g>
  </g>
</svg>
