<svg xmlns="http://www.w3.org/2000/svg" xmlns:xlink="http://www.w3.org/1999/xlink" width="366" height="296" viewBox="0 0 366 296">
  <defs>
    <clipPath id="clip-path">
      <rect id="사각형_2406" data-name="사각형 2406" width="366" height="296" transform="translate(4833 3603)" fill="#111"/>
    </clipPath>
    <clipPath id="clip-path-2">
      <rect id="사각형_2314" data-name="사각형 2314" width="293.58" height="208.32" transform="translate(-31.453 39.456) rotate(-13.31)" fill="none"/>
    </clipPath>
  </defs>
  <g id="그룹_11733" data-name="그룹 11733" transform="translate(-4833 -3603)">
    <g id="마스크_그룹_49" data-name="마스크 그룹 49" clip-path="url(#clip-path)">
      <g id="레이어_2" data-name="레이어 2" transform="translate(4880.453 3644.132)">
        <g id="레이어_1" data-name="레이어 1">
          <g id="그룹_9839" data-name="그룹 9839" clip-path="url(#clip-path-2)">
            <path id="패스_3605" data-name="패스 3605" d="M237.44,88.89l21.12-2,.5-3-20.87.46v-.06a.67.67,0,0,0-.1-.48,19.93,19.93,0,0,0-4.19-4.35A16.39,16.39,0,0,0,222.13,76a.52.52,0,0,0-.45.46l-.37,2.21L221.08,80l-.29,1.71a.64.64,0,0,0,.43.72.51.51,0,0,0,.61-.46l.29-1.71.15-.92.38-2.25a15.13,15.13,0,0,1,10.65,3.34,19.4,19.4,0,0,1,3.81,3.87L236,90.86a.63.63,0,0,0,.43.72.52.52,0,0,0,.62-.45Z" transform="translate(-31.45 -28.12)" fill="#c89749"/>
            <path id="패스_3606" data-name="패스 3606" d="M221.57,77l-3.23-1.49a.27.27,0,0,0-.12,0l.32-2a.7.7,0,0,0-.08-.47,18.24,18.24,0,0,0-3.74-4.28,13.66,13.66,0,0,0-10.65-3.37.53.53,0,0,0-.42.47l-.37,2.21-.23,1.39-.29,1.71a.61.61,0,0,0,.37.71.49.49,0,0,0,.57-.46l.29-1.71.15-.92.38-2.25a12.57,12.57,0,0,1,9.63,3.18,18.209,18.209,0,0,1,3.41,3.81l-1.1,6.55a.61.61,0,0,0,.38.7c.26.07.51-.14.57-.46l.61-3.65,3.33,1.53Z" transform="translate(-31.45 -28.12)" fill="#c89749"/>
            <path id="패스_3607" data-name="패스 3607" d="M137.85,90.46S134.58,66.61,110.48,65" transform="translate(-31.45 -28.12)" fill="none" stroke="#fff" stroke-linecap="round" stroke-linejoin="round" stroke-width="1"/>
            <path id="패스_3608" data-name="패스 3608" d="M110.17,65S74,62.5,77,99.33" transform="translate(-31.45 -28.12)" fill="none" stroke="#fff" stroke-linecap="round" stroke-linejoin="round" stroke-width="1"/>
            <path id="패스_3609" data-name="패스 3609" d="M121.78,108c-2.07,1.69-5.06,1.57-7.41,1.72-3.13.21-5.6,5.6-7.1,6.59-1.24.83-7.18,8.36-17.38,5.61" transform="translate(-31.45 -28.12)" fill="none" stroke="#fff" stroke-linecap="round" stroke-linejoin="round" stroke-width="1"/>
            <path id="패스_3610" data-name="패스 3610" d="M138.25,91.66s.3,8-2.91,10.58-3.61,3.55-3.72,5.22c0,0,.16,5.92-2,8.17,0,0,.26-5.94-.86-9.69" transform="translate(-31.45 -28.12)" fill="none" stroke="#fff" stroke-linecap="round" stroke-linejoin="round" stroke-width="1"/>
            <path id="패스_3611" data-name="패스 3611" d="M137.82,99.55a26.38,26.38,0,0,0,.2,4.56c.32,2.67-1.62,6.14-1.87,7.07a29,29,0,0,0-.19,7.44c.24,3.87-1.67,7.85-4.23,11.15s-4.64,5-5,6.23-1.43,9.94-10.92,6.45" transform="translate(-31.45 -28.12)" fill="none" stroke="#fff" stroke-linecap="round" stroke-linejoin="round" stroke-width="1"/>
            <path id="패스_3612" data-name="패스 3612" d="M127.89,103.09s1.33-.14,1.14,1.38-2,2-2,2" transform="translate(-31.45 -28.12)" fill="none" stroke="#fff" stroke-linecap="round" stroke-linejoin="round" stroke-width="1"/>
            <path id="패스_3613" data-name="패스 3613" d="M116.74,121.87s-3.16,26.52-4.13,30" transform="translate(-31.45 -28.12)" fill="none" stroke="#fff" stroke-linecap="round" stroke-linejoin="round" stroke-width="1"/>
            <path id="패스_3614" data-name="패스 3614" d="M121.26,122.68a48.9,48.9,0,0,0,0,6.4" transform="translate(-31.45 -28.12)" fill="none" stroke="#fff" stroke-linecap="round" stroke-linejoin="round" stroke-width="1"/>
            <path id="패스_3615" data-name="패스 3615" d="M130.27,161.68s-10.79.5-12.1,17.23" transform="translate(-31.45 -28.12)" fill="none" stroke="#fff" stroke-linecap="round" stroke-linejoin="round" stroke-width="1"/>
            <path id="패스_3616" data-name="패스 3616" d="M159.18,194.56a46.41,46.41,0,0,1-22.67,29.21" transform="translate(-31.45 -28.12)" fill="none" stroke="#fff" stroke-linecap="round" stroke-linejoin="round" stroke-width="1"/>
            <path id="패스_3617" data-name="패스 3617" d="M167,203.5a46.22,46.22,0,0,1-19.76,25.12" transform="translate(-31.45 -28.12)" fill="none" stroke="#fff" stroke-linecap="round" stroke-linejoin="round" stroke-width="1"/>
            <path id="패스_3618" data-name="패스 3618" d="M77.41,99.79A5.6,5.6,0,0,1,83,97.37c5,.48,9.49,1.87,10,6,.42,3.65-1,7.22-4.45,8.14" transform="translate(-31.45 -28.12)" fill="none" stroke="#fff" stroke-linecap="round" stroke-linejoin="round" stroke-width="1"/>
            <path id="패스_3619" data-name="패스 3619" d="M122.92,217.51a18.77,18.77,0,0,1-8.15,6.81c-8.49,3.54-7.59,38.28-7.59,38.28" transform="translate(-31.45 -28.12)" fill="none" stroke="#fff" stroke-linecap="round" stroke-linejoin="round" stroke-width="1"/>
            <path id="패스_3620" data-name="패스 3620" d="M234.47,195.3c-.53,2,3.24,4,3.24,4" transform="translate(-31.45 -28.12)" fill="none" stroke="#fff" stroke-linecap="round" stroke-linejoin="round" stroke-width="1"/>
            <path id="패스_3621" data-name="패스 3621" d="M243.36,197.23c-.88-1.27-2.45-1.42-4-2.37s-4.4-1.57-4.93.44" transform="translate(-31.45 -28.12)" fill="none" stroke="#fff" stroke-linecap="round" stroke-linejoin="round" stroke-width="1"/>
            <path id="패스_3622" data-name="패스 3622" d="M234.32,200.48c-1.27-.78-2.77-.25-4.51-.45s-4.63.47-4.39,2.53,4.44,2.23,4.44,2.23" transform="translate(-31.45 -28.12)" fill="none" stroke="#fff" stroke-linecap="round" stroke-linejoin="round" stroke-width="1"/>
            <path id="패스_3623" data-name="패스 3623" d="M251.6,207s-4.74,4.16-6.63,7.19-2.15,3.67-3.44,4.59c0,0-.51.57-3,1l-1,.87-1.28.75c-.86.51-1.73,1-2.58,1.53a10.4,10.4,0,0,1-1.3.81,5.268,5.268,0,0,0-.62.24l-.63.39c-1.75,1.05-3.51,2.07-5.29,3.08-3.41,1.93-6.85,3.8-10.3,5.66-3.62,1.95-7.25,3.85-10.92,5.7s-7.22,3.56-10.85,5.3L191,245.4l-1.55.57c-11.11,2.19-20.73-4.11-20.73-4.11-10.51-5.62-20.66-11-30.84-17.32-.47-.23-.85-.45-1.32-.68a13.184,13.184,0,0,0-1.61-1c-2.53-1.74-5.09-3.1-7.62-4.84-.38-.22-.86-.45-1.23-.67-3.48-2.3-6.77-4.49-10.09-6.88" transform="translate(-31.45 -28.12)" fill="none" stroke="#fff" stroke-linecap="round" stroke-linejoin="round" stroke-width="1"/>
            <path id="패스_3624" data-name="패스 3624" d="M247,190.2s2.72,2.41,4.2,3.51,1.93,4.38,2.34,5.6,2.07,4.34-1.54,7.54" transform="translate(-31.45 -28.12)" fill="none" stroke="#fff" stroke-linecap="round" stroke-linejoin="round" stroke-width="1"/>
            <path id="패스_3625" data-name="패스 3625" d="M248.7,196.39a25.091,25.091,0,0,1-2.83,1c-2.23.68-1.66.08-3.82,1.33s-5.78.87-8.81,4.85c0,0-4.18,3.24-5.19,4.38l-1.29.69c-32.14,9.34-46.67,7.51-46.67,7.51l-1.38-1.36c-14.12-15.36-40.25-47.16-40.25-47.16-6-8.46-11.06-4.58-14-8.06s-7.24-2.26-10.07-5.23a18.79,18.79,0,0,0-7.28-4.28c-4.57-5.34-10.92-8.14-17-9.57" transform="translate(-31.45 -28.12)" fill="none" stroke="#fff" stroke-linecap="round" stroke-linejoin="round" stroke-width="1"/>
            <path id="패스_3626" data-name="패스 3626" d="M249.32,196s2.24.43,1.13,4.16-7.4,5.84-7.4,5.84" transform="translate(-31.45 -28.12)" fill="none" stroke="#fff" stroke-linecap="round" stroke-linejoin="round" stroke-width="1"/>
            <path id="패스_3627" data-name="패스 3627" d="M246.48,189.63s-3.45,1.89.5,6.38" transform="translate(-31.45 -28.12)" fill="none" stroke="#fff" stroke-linecap="round" stroke-linejoin="round" stroke-width="1"/>
            <path id="패스_3628" data-name="패스 3628" d="M283.73,54.17s-1.94-13.62-9-16.76c0,0-7.24-6-14.95-6.38,0,0-9.07-6.36-26.11.54,0,0-10.19,8-18.24,24.19,0,0,11.39,2.52,26.24,14" transform="translate(-31.45 -28.12)" fill="none" stroke="#fff" stroke-linecap="round" stroke-linejoin="round" stroke-width="1"/>
            <path id="패스_3629" data-name="패스 3629" d="M242.1,70s9.3,8.82,21.68,10.77c0,0,7.39.65,5.71,19.57l-2.22,1.55s-.21-16.71-4.79-18.18" transform="translate(-31.45 -28.12)" fill="none" stroke="#fff" stroke-linecap="round" stroke-linejoin="round" stroke-width="1"/>
            <path id="패스_3630" data-name="패스 3630" d="M261.6,83.1s-8.16,1-21.08-10.3" transform="translate(-31.45 -28.12)" fill="none" stroke="#fff" stroke-linecap="round" stroke-linejoin="round" stroke-width="1"/>
            <path id="패스_3631" data-name="패스 3631" d="M215.16,55.78a4.81,4.81,0,0,0-1.22,2.79c6.21-.94,25.71,13.95,25.71,13.95" transform="translate(-31.45 -28.12)" fill="none" stroke="#fff" stroke-linecap="round" stroke-linejoin="round" stroke-width="1"/>
            <path id="패스_3632" data-name="패스 3632" d="M283.47,55c5.8,1.87-.65,15.24-4,25.16-1.3,3.78-2,6.36-2.44,8.1,0,0-1.9,5.52-4.19,7.45" transform="translate(-31.45 -28.12)" fill="none" stroke="#fff" stroke-linecap="round" stroke-linejoin="round" stroke-width="1"/>
            <path id="패스_3633" data-name="패스 3633" d="M272.08,84.21c1.45,4.48,1.42,9.77-1.77,15.68" transform="translate(-31.45 -28.12)" fill="none" stroke="#fff" stroke-linecap="round" stroke-linejoin="round" stroke-width="1"/>
            <path id="패스_3634" data-name="패스 3634" d="M282.85,53.89s1.14-1.64-3-4.06c0,0,1.5-3.73-1.78-5.65,0,0-.92-1.91-2-2" transform="translate(-31.45 -28.12)" fill="none" stroke="#fff" stroke-linecap="round" stroke-linejoin="round" stroke-width="1"/>
            <path id="패스_3635" data-name="패스 3635" d="M275,38.21a13.47,13.47,0,0,1-4.41,1.07c-2.67.22-13.5.08-20.37-1.81s-7.08-5.09,8.46-5.92" transform="translate(-31.45 -28.12)" fill="none" stroke="#fff" stroke-linecap="round" stroke-linejoin="round" stroke-width="1"/>
            <path id="패스_3636" data-name="패스 3636" d="M275.79,41.41s.51-2.23-4.2-2.88" transform="translate(-31.45 -28.12)" fill="none" stroke="#fff" stroke-linecap="round" stroke-linejoin="round" stroke-width="1"/>
            <path id="패스_3637" data-name="패스 3637" d="M264.64,38.43a22.42,22.42,0,0,0-5.11-2.26,11,11,0,0,1-4.4-2.28,11.61,11.61,0,0,0-5.23-2.54" transform="translate(-31.45 -28.12)" fill="none" stroke="#fff" stroke-linecap="round" stroke-linejoin="round" stroke-width="1"/>
            <path id="패스_3638" data-name="패스 3638" d="M269.75,99.7s2,.33,3.44,4.32c0,0-.14,2.37,6.43,1.12l1.84-2.89a27.849,27.849,0,0,1-6,1.63c-1.77.11-1.75-4.16-3.56-6.83" transform="translate(-31.45 -28.12)" fill="none" stroke="#fff" stroke-linecap="round" stroke-linejoin="round" stroke-width="1"/>
            <path id="패스_3639" data-name="패스 3639" d="M273.07,104.69a33.728,33.728,0,0,1,.42,6.83c-.19,3.42,3.18,3.88,4.31,3.62s.32-9.55.32-9.55" transform="translate(-31.45 -28.12)" fill="none" stroke="#fff" stroke-linecap="round" stroke-linejoin="round" stroke-width="1"/>
            <path id="패스_3640" data-name="패스 3640" d="M280.39,104.71s2.5,8.26-1.88,10.55a19.609,19.609,0,0,0-1.9,1.69c-.47.56-3.93.1-4.76-3.86a32.69,32.69,0,0,0-1.39-5.22s.1-5.65-.13-7.26" transform="translate(-31.45 -28.12)" fill="none" stroke="#fff" stroke-linecap="round" stroke-linejoin="round" stroke-width="1"/>
            <path id="패스_3641" data-name="패스 3641" d="M278.58,102.67a10.23,10.23,0,0,0-5.15-3.12" transform="translate(-31.45 -28.12)" fill="none" stroke="#fff" stroke-linecap="round" stroke-linejoin="round" stroke-width="1"/>
            <path id="패스_3642" data-name="패스 3642" d="M266.22,100.92l-.82.69c-2.15,1.78-4.78,5-9.72,3.39" transform="translate(-31.45 -28.12)" fill="none" stroke="#fff" stroke-linecap="round" stroke-linejoin="round" stroke-width="1"/>
            <path id="패스_3643" data-name="패스 3643" d="M265.55,90.71a12.33,12.33,0,0,1-3.22,2.07c-4.28,2,.05,3.26-1.65,4.85,0,0-1,2.58,2.15-.29,0,0,.67-.85,2.94.53" transform="translate(-31.45 -28.12)" fill="none" stroke="#fff" stroke-linecap="round" stroke-linejoin="round" stroke-width="1"/>
            <path id="패스_3644" data-name="패스 3644" d="M257.32,100.7s-3.67.86-2.09,4" transform="translate(-31.45 -28.12)" fill="none" stroke="#fff" stroke-linecap="round" stroke-linejoin="round" stroke-width="1"/>
            <path id="패스_3645" data-name="패스 3645" d="M259,82.93a55.821,55.821,0,0,1-3.18,13c-1.51,3.89.86,1,4.12-1.78" transform="translate(-31.45 -28.12)" fill="none" stroke="#fff" stroke-linecap="round" stroke-linejoin="round" stroke-width="1"/>
            <path id="패스_3646" data-name="패스 3646" d="M221,83a6.8,6.8,0,0,0,3.1,5.88c3.43,2.37,9.94,5.33,12,3.13" transform="translate(-31.45 -28.12)" fill="none" stroke="#fff" stroke-linecap="round" stroke-linejoin="round" stroke-width="1"/>
            <path id="패스_3647" data-name="패스 3647" d="M203,72.46a6.88,6.88,0,0,0,2.73,5.82c3.08,2.32,9,5.18,10.82,3" transform="translate(-31.45 -28.12)" fill="none" stroke="#fff" stroke-linecap="round" stroke-linejoin="round" stroke-width="1"/>
            <path id="패스_3648" data-name="패스 3648" d="M209.13,69.75s-.77,1.81-1.17,2.57-4.32,5.52-3.39,15.43.46,7.06,1.17,12.23" transform="translate(-31.45 -28.12)" fill="none" stroke="#fff" stroke-linecap="round" stroke-linejoin="round" stroke-width="1"/>
            <path id="패스_3649" data-name="패스 3649" d="M205.83,100.26a57.371,57.371,0,0,1,.29,7.3c-.08,4.44,3,9.48,12.74,12.66l9.43.92" transform="translate(-31.45 -28.12)" fill="none" stroke="#fff" stroke-linecap="round" stroke-linejoin="round" stroke-width="1"/>
            <path id="패스_3650" data-name="패스 3650" d="M260.45,105a67.5,67.5,0,0,0-6.09,6.71" transform="translate(-31.45 -28.12)" fill="none" stroke="#fff" stroke-linecap="round" stroke-linejoin="round" stroke-width="1"/>
            <path id="패스_3651" data-name="패스 3651" d="M208.77,115a236.638,236.638,0,0,0-3,27.65s20.92-2.5,56.31-27.77l-.83-4.49-.91-2.52" transform="translate(-31.45 -28.12)" fill="none" stroke="#fff" stroke-linecap="round" stroke-linejoin="round" stroke-width="1"/>
            <path id="패스_3652" data-name="패스 3652" d="M171.91,144.13a2.128,2.128,0,0,1,.11-.5" transform="translate(-31.45 -28.12)" fill="none" stroke="#fff" stroke-linecap="round" stroke-linejoin="round" stroke-width="1"/>
            <path id="패스_3653" data-name="패스 3653" d="M172.18,143c.09-.32.18-.62.28-.91" transform="translate(-31.45 -28.12)" fill="none" stroke="#fff" stroke-linecap="round" stroke-linejoin="round" stroke-width="1"/>
            <path id="패스_3654" data-name="패스 3654" d="M172.56,141.82c.06-.17.12-.33.19-.48" transform="translate(-31.45 -28.12)" fill="none" stroke="#fff" stroke-linecap="round" stroke-linejoin="round" stroke-width="1"/>
            <path id="패스_3655" data-name="패스 3655" d="M165,144.17v-.52" transform="translate(-31.45 -28.12)" fill="none" stroke="#fff" stroke-linecap="round" stroke-linejoin="round" stroke-width="1"/>
            <path id="패스_3656" data-name="패스 3656" d="M164.86,142.85a10.087,10.087,0,0,0-.25-1.18" transform="translate(-31.45 -28.12)" fill="none" stroke="#fff" stroke-linecap="round" stroke-linejoin="round" stroke-width="1"/>
            <path id="패스_3657" data-name="패스 3657" d="M164.5,141.29c-.06-.17-.11-.33-.17-.48" transform="translate(-31.45 -28.12)" fill="none" stroke="#fff" stroke-linecap="round" stroke-linejoin="round" stroke-width="1"/>
            <line id="선_120" data-name="선 120" x1="1.01" y2="8.43" transform="translate(225.16 80.56)" fill="none" stroke="#fff" stroke-linecap="round" stroke-linejoin="round" stroke-width="1"/>
            <path id="패스_3658" data-name="패스 3658" d="M203.48,88a40.18,40.18,0,0,0-11.92,1.56" transform="translate(-31.45 -28.12)" fill="none" stroke="#fff" stroke-linecap="round" stroke-linejoin="round" stroke-width="1"/>
            <line id="선_121" data-name="선 121" x2="0.24" y2="10.89" transform="translate(179.19 88.11)" fill="none" stroke="#fff" stroke-linecap="round" stroke-linejoin="round" stroke-width="1"/>
            <path id="패스_3659" data-name="패스 3659" d="M146.16,149.67c-6.39-6.66-5.63-17.81-5.63-17.81l7.1-8.93,1.44-2.12" transform="translate(-31.45 -28.12)" fill="none" stroke="#fff" stroke-linecap="round" stroke-linejoin="round" stroke-width="1"/>
            <path id="패스_3660" data-name="패스 3660" d="M147,150.68s6.16,6.73,13.21,9.5" transform="translate(-31.45 -28.12)" fill="none" stroke="#fff" stroke-linecap="round" stroke-linejoin="round" stroke-width="1"/>
            <path id="패스_3661" data-name="패스 3661" d="M139.92,138.39a64.159,64.159,0,0,1-4.65,7.49c-2.17,3-7.29,6.74-12.37,12.28" transform="translate(-31.45 -28.12)" fill="none" stroke="#fff" stroke-linecap="round" stroke-linejoin="round" stroke-width="1"/>
            <path id="패스_3662" data-name="패스 3662" d="M156.81,159.07c-1.09.91-2.19,1.89-3.26,2.93-2.24,2.19-4.78,6.6-8.44,11.46" transform="translate(-31.45 -28.12)" fill="none" stroke="#fff" stroke-linecap="round" stroke-linejoin="round" stroke-width="1"/>
            <path id="패스_3663" data-name="패스 3663" d="M77.92,279.57a2.463,2.463,0,0,0-.13-.5" transform="translate(-31.45 -28.12)" fill="none" stroke="#fff" stroke-linecap="round" stroke-linejoin="round" stroke-width="1"/>
            <path id="패스_3664" data-name="패스 3664" d="M77.53,278.07c-8.51-33.67.73-53.44.73-53.44C97,181.37,86.88,115.85,86.88,115.85c-.33-1.4-.52-2.88-.72-4.3-1.57-11-8.83-10.65-8.83-10.65-3.31,0-9.84,2-13.29,17.19a152.612,152.612,0,0,0-1.28,21.53,351.744,351.744,0,0,1-3.83,57.88c-3.71,23.76-6.94,50.15-3.17,65.32" transform="translate(-31.45 -28.12)" fill="none" stroke="#fff" stroke-linecap="round" stroke-linejoin="round" stroke-width="1"/>
            <path id="패스_3665" data-name="패스 3665" d="M55.89,263.31a2.085,2.085,0,0,0,.13.49v-.51" transform="translate(-31.45 -28.12)" fill="none" stroke="#fff" stroke-linecap="round" stroke-linejoin="round" stroke-width="1"/>
            <path id="패스_3666" data-name="패스 3666" d="M56,262.3c0-3.44.28-12.7,4-27.11" transform="translate(-31.45 -28.12)" fill="none" stroke="#fff" stroke-linecap="round" stroke-linejoin="round" stroke-width="1"/>
            <path id="패스_3667" data-name="패스 3667" d="M60.06,234.7a2.463,2.463,0,0,1,.13-.5v.51" transform="translate(-31.45 -28.12)" fill="none" stroke="#fff" stroke-linecap="round" stroke-linejoin="round" stroke-width="1"/>
            <path id="패스_3668" data-name="패스 3668" d="M60.14,235.75c-.17,7.05-.2,36.45,10.49,49.39" transform="translate(-31.45 -28.12)" fill="none" stroke="#fff" stroke-linecap="round" stroke-linejoin="round" stroke-width="1"/>
            <path id="패스_3669" data-name="패스 3669" d="M71,285.54l.34.39-.17-.48" transform="translate(-31.45 -28.12)" fill="none" stroke="#fff" stroke-linecap="round" stroke-linejoin="round" stroke-width="1"/>
            <path id="패스_3670" data-name="패스 3670" d="M70.85,284.51a37.53,37.53,0,0,1-1.08-15.13" transform="translate(-31.45 -28.12)" fill="none" stroke="#fff" stroke-linecap="round" stroke-linejoin="round" stroke-width="1"/>
            <path id="패스_3671" data-name="패스 3671" d="M69.84,268.89a1.2,1.2,0,0,1,.08-.52,1.2,1.2,0,0,0,.16.49" transform="translate(-31.45 -28.12)" fill="none" stroke="#fff" stroke-linecap="round" stroke-linejoin="round" stroke-width="1"/>
            <path id="패스_3672" data-name="패스 3672" d="M70.43,269.81c1,2.5,3.43,7.71,7.68,11.26" transform="translate(-31.45 -28.12)" fill="none" stroke="#fff" stroke-linecap="round" stroke-linejoin="round" stroke-width="1"/>
            <path id="패스_3673" data-name="패스 3673" d="M78.52,281.39l.41.32-.21-.48" transform="translate(-31.45 -28.12)" fill="none" stroke="#fff" stroke-linecap="round" stroke-linejoin="round" stroke-width="1"/>
            <line id="선_122" data-name="선 122" x1="0.35" y1="0.8" transform="translate(46.69 251.78)" fill="none" stroke="#fff" stroke-linecap="round" stroke-linejoin="round" stroke-width="1"/>
            <line id="선_123" data-name="선 123" x1="0.21" y1="0.47" transform="translate(46.37 251.05)" fill="none" stroke="#fff" stroke-linecap="round" stroke-linejoin="round" stroke-width="1"/>
            <path id="패스_3674" data-name="패스 3674" d="M77.88,161.65a3.8,3.8,0,0,0,.05.51" transform="translate(-31.45 -28.12)" fill="none" stroke="#fff" stroke-linecap="round" stroke-linejoin="round" stroke-width="1"/>
            <path id="패스_3675" data-name="패스 3675" d="M78,163.18a156.94,156.94,0,0,1-5.68,52.75c-7.38,26-3.93,45.76-3,50.34" transform="translate(-31.45 -28.12)" fill="none" stroke="#fff" stroke-linecap="round" stroke-linejoin="round" stroke-width="1"/>
            <path id="패스_3676" data-name="패스 3676" d="M69.51,266.78c.07.32.12.49.12.49" transform="translate(-31.45 -28.12)" fill="none" stroke="#fff" stroke-linecap="round" stroke-linejoin="round" stroke-width="1"/>
            <path id="패스_3677" data-name="패스 3677" d="M233.85,193.91a32.51,32.51,0,0,1-4.18-2.27s-12.19-7.59-20.57-12.42-9.21-9.35-11.62-13.29-3.69-11.2-3.69-11.2a4.84,4.84,0,0,0-4.2-4.81l-2.8-.89c-4.07-2.09-8.24-3.25-10.79-4.25a12.83,12.83,0,0,0-5.66-.55s-1.35.12-4.31.31a15.6,15.6,0,0,0-6.25,2.05l-3.5,1.83a2.81,2.81,0,0,0-.76,3.72s2.4,2.62,6.48.13l1.47-.41s1.38-.13,4-.27" transform="translate(-31.45 -28.12)" fill="none" stroke="#fff" stroke-linecap="round" stroke-linejoin="round" stroke-width="1"/>
            <path id="패스_3678" data-name="패스 3678" d="M177.67,182.09l-.92-1.16a43.69,43.69,0,0,1-8.06-.25s-3,.29-2.95-3.28c0,0-.07-2.86,2.46-3.33a88,88,0,0,1,10.41-1s2-.75.84-2" transform="translate(-31.45 -28.12)" fill="none" stroke="#fff" stroke-linecap="round" stroke-linejoin="round" stroke-width="1"/>
            <path id="패스_3679" data-name="패스 3679" d="M213.35,210.83a175.763,175.763,0,0,0-19.55-17.4" transform="translate(-31.45 -28.12)" fill="none" stroke="#fff" stroke-linecap="round" stroke-linejoin="round" stroke-width="1"/>
            <path id="패스_3680" data-name="패스 3680" d="M284.81,219c-.46,1.52-1,3.41-1.57,5.37-1.31,4.7-5.45,11.34-9.37,13.82S269,243.26,261.39,240s-9.24-2.78-12-3.44a64.4,64.4,0,0,1-20.53-9.94" transform="translate(-31.45 -28.12)" fill="none" stroke="#fff" stroke-linecap="round" stroke-linejoin="round" stroke-width="1"/>
            <path id="패스_3681" data-name="패스 3681" d="M178.94,170.85s-7.61-.06-11.07.37a1.42,1.42,0,0,0-.41,1" transform="translate(-31.45 -28.12)" fill="none" stroke="#fff" stroke-linecap="round" stroke-linejoin="round" stroke-width="1"/>
            <path id="패스_3682" data-name="패스 3682" d="M169.58,171.19a5.23,5.23,0,0,1,1.14,2.37" transform="translate(-31.45 -28.12)" fill="none" stroke="#fff" stroke-linecap="round" stroke-linejoin="round" stroke-width="1"/>
            <path id="패스_3683" data-name="패스 3683" d="M162.13,170.69a3.61,3.61,0,0,0,2.06,3.87l1.75,1" transform="translate(-31.45 -28.12)" fill="none" stroke="#fff" stroke-linecap="round" stroke-linejoin="round" stroke-width="1"/>
            <path id="패스_3684" data-name="패스 3684" d="M162.18,170.28s1.5-7.52,4.42-7.34a65.23,65.23,0,0,1,10.59.47" transform="translate(-31.45 -28.12)" fill="none" stroke="#fff" stroke-linecap="round" stroke-linejoin="round" stroke-width="1"/>
            <path id="패스_3685" data-name="패스 3685" d="M178.12,161.06l-1.39-.06s-5.36-1.46-6.6-1.35" transform="translate(-31.45 -28.12)" fill="none" stroke="#fff" stroke-linecap="round" stroke-linejoin="round" stroke-width="1"/>
            <path id="패스_3686" data-name="패스 3686" d="M170.36,159.09a9.21,9.21,0,0,0-1.63,3.57" transform="translate(-31.45 -28.12)" fill="none" stroke="#fff" stroke-linecap="round" stroke-linejoin="round" stroke-width="1"/>
            <path id="패스_3687" data-name="패스 3687" d="M162.59,168c-.66-1.84-1.59-6-1.59-6-1.31-3.3,3.5-7.22,3.5-7.22a13.431,13.431,0,0,0,1.88-1.92,4.73,4.73,0,0,1,6.09-1.19,36.79,36.79,0,0,1,10.72,2.76l1.42-.14" transform="translate(-31.45 -28.12)" fill="none" stroke="#fff" stroke-linecap="round" stroke-linejoin="round" stroke-width="1"/>
            <path id="패스_3688" data-name="패스 3688" d="M175.43,171c.09.71.17,1.37.23,1.94" transform="translate(-31.45 -28.12)" fill="none" stroke="#fff" stroke-linecap="round" stroke-linejoin="round" stroke-width="1"/>
            <path id="패스_3689" data-name="패스 3689" d="M173.71,160.41c.12.63.27,1.49.44,2.48" transform="translate(-31.45 -28.12)" fill="none" stroke="#fff" stroke-linecap="round" stroke-linejoin="round" stroke-width="1"/>
            <path id="패스_3690" data-name="패스 3690" d="M177.83,182.29s3.46,9.62,15.8,11" transform="translate(-31.45 -28.12)" fill="none" stroke="#fff" stroke-linecap="round" stroke-linejoin="round" stroke-width="1"/>
            <path id="패스_3691" data-name="패스 3691" d="M259.76,105.25l2.78,2.74,8.1,8.45,8.27,7.32s15.57,12.92,18.65,17.92c2.63,4.28,7.55,15.06,1.63,41,0,0-6.05,29.13-9.85,43.89,0,0,2.11-11.84-20.3-25.23a89.072,89.072,0,0,0-15.74-7.94l-3.43-1.35" transform="translate(-31.45 -28.12)" fill="none" stroke="#fff" stroke-linecap="round" stroke-linejoin="round" stroke-width="1"/>
            <path id="패스_3692" data-name="패스 3692" d="M288.51,227.88s-1,5.54-9,5.78" transform="translate(-31.45 -28.12)" fill="none" stroke="#fff" stroke-linecap="round" stroke-linejoin="round" stroke-width="1"/>
            <path id="패스_3693" data-name="패스 3693" d="M284.25,129.06c-4.11-.19-8.72,1.25-13.37,5.91" transform="translate(-31.45 -28.12)" fill="none" stroke="#fff" stroke-linecap="round" stroke-linejoin="round" stroke-width="1"/>
            <path id="패스_3694" data-name="패스 3694" d="M256,160s-5.18,9.37-12.78,31.58l1.39.09" transform="translate(-31.45 -28.12)" fill="none" stroke="#fff" stroke-linecap="round" stroke-linejoin="round" stroke-width="1"/>
            <path id="패스_3695" data-name="패스 3695" d="M249.31,156.29s-2.44,11.34-.81,18.89" transform="translate(-31.45 -28.12)" fill="none" stroke="#fff" stroke-linecap="round" stroke-linejoin="round" stroke-width="1"/>
            <path id="패스_3696" data-name="패스 3696" d="M241.71,167.65a37.11,37.11,0,0,0,5.16,10.79" transform="translate(-31.45 -28.12)" fill="none" stroke="#fff" stroke-linecap="round" stroke-linejoin="round" stroke-width="1"/>
            <path id="패스_3697" data-name="패스 3697" d="M194.5,109.67c-.52,17.87-11.15,32.2-23.72,32S148.43,126.83,149,109s11.15-32.21,23.73-32S195,91.79,194.5,109.67Z" transform="translate(-31.45 -28.12)" fill="none" stroke="#fff" stroke-linecap="round" stroke-linejoin="round" stroke-width="1"/>
            <path id="패스_3698" data-name="패스 3698" d="M188.8,109.58c-.43,14.57-8.74,26.25-18.55,26.1s-17.43-12.09-17-26.65S162,82.78,171.8,82.93,189.23,95,188.8,109.58Z" transform="translate(-31.45 -28.12)" fill="none" stroke="#fff" stroke-linecap="round" stroke-linejoin="round" stroke-width="1"/>
            <path id="패스_3699" data-name="패스 3699" d="M177.16,84.45,177,85c-2.45,13.89-8,32.05-20.49,39.2a23.12,23.12,0,0,0,9,11.18,50.17,50.17,0,0,1,22.9-34.63C186.15,90,179.6,85.7,177.16,84.45Z" transform="translate(-31.45 -28.12)" fill="#c89749" opacity="0.1"/>
            <path id="패스_3700" data-name="패스 3700" d="M184.25,103.59c-.34-.08-.58.39-.56,1s.33,1.26.66,1.35.58-.39.55-1S184.58,103.67,184.25,103.59Zm0,1.19h-.1v-.51h.19a.1.1,0,0,1,.05.06.15.15,0,0,1,0,.08.34.34,0,0,1,0,.11.28.28,0,0,1,0,.13v.07a.06.06,0,0,1-.06,0Zm-.06.8v-.6h.13l.2.64h.06a.25.25,0,0,1-.24.08.59.59,0,0,1-.26-.2Zm.23-.58a.22.22,0,0,0,.11-.12.78.78,0,0,0,0-.29.8.8,0,0,0-.1-.36.34.34,0,0,0-.23-.18L184,104l.07,1.55a1.69,1.69,0,0,1-.27-.87c0-.53.18-.91.45-.84s.5.55.52,1.08a1.22,1.22,0,0,1-.13.67Z" transform="translate(-31.45 -28.12)" fill="#c89749"/>
            <path id="패스_3701" data-name="패스 3701" d="M158.88,98.67l1.22.3.26.06c.92.23,1.63,1,1.46,2.75s-1,2.26-1.89,2l-.49-.12-.23,2.37-1-.25Zm1.13,3.78c.49.12.76-.21.83-.92s-.18-1-.66-1.16l-.41-.1-.2,2.07Z" transform="translate(-31.45 -28.12)" fill="#c89749"/>
            <path id="패스_3702" data-name="패스 3702" d="M162,101.17l.82.2v1h0c.31-.67.7-.94,1-.86a.84.84,0,0,1,.38.21l-.31,1.43a1.2,1.2,0,0,0-.34-.17c-.24-.06-.55.13-.79.81l-.3,3.13-1-.25Z" transform="translate(-31.45 -28.12)" fill="#c89749"/>
            <path id="패스_3703" data-name="패스 3703" d="M163.88,104.43c.17-1.78,1-2.69,1.8-2.5s1.26,1.49,1.12,3a6.293,6.293,0,0,1-.11.72l-1.89-.47c0,.77.29,1.16.7,1.26a.86.86,0,0,0,.71-.18l.23,1.11a1.4,1.4,0,0,1-1.21.34C164.31,107.47,163.7,106.24,163.88,104.43Zm2.1-.11c.06-.55,0-1-.41-1.07s-.55.16-.68.8Z" transform="translate(-31.45 -28.12)" fill="#c89749"/>
            <path id="패스_3704" data-name="패스 3704" d="M166.71,100.6l1.06.27.17,3.38c.05.8.06,1.56.11,2.37h0c.19-.75.35-1.46.54-2.2l.79-3.15,1,.26-1.95,6.84-1.21-.3Z" transform="translate(-31.45 -28.12)" fill="#c89749"/>
            <path id="패스_3705" data-name="패스 3705" d="M170.63,101.62c.05-.52.32-.82.66-.74s.54.51.49,1-.32.81-.66.73S170.58,102.13,170.63,101.62Zm-.08,1.66,1,.24L171,109l-1-.25Z" transform="translate(-31.45 -28.12)" fill="#c89749"/>
            <path id="패스_3706" data-name="패스 3706" d="M171.5,106.32c.17-1.78,1-2.69,1.79-2.5.93.23,1.27,1.48,1.13,3a4.361,4.361,0,0,1-.12.72l-1.88-.46c0,.77.29,1.15.7,1.25a.85.85,0,0,0,.71-.17l.23,1.11a1.4,1.4,0,0,1-1.21.34C171.93,109.36,171.32,108.13,171.5,106.32Zm2.1-.11c.06-.55,0-1-.41-1.08s-.55.17-.68.81Z" transform="translate(-31.45 -28.12)" fill="#c89749"/>
            <path id="패스_3707" data-name="패스 3707" d="M174.5,104.26l1,.24.05,2.53v1.66h0c.11-.53.21-1.08.34-1.59l.56-2.37.87.22.11,2.53v1.69h0c.1-.53.18-1.07.3-1.6l.51-2.38.93.23-1.17,5.3-1.17-.3-.07-2.15v-1.65h0c-.11.58-.2,1.07-.3,1.56l-.46,2-1.15-.29Z" transform="translate(-31.45 -28.12)" fill="#c89749"/>
            <path id="패스_3708" data-name="패스 3708" d="M179.45,109l.2-2.11-.43-.11.12-1.27.5.06.25-1.42.83.21-.13,1.44.75.19-.12,1.34-.76-.19-.2,2.08c-.06.61.09.89.32,1a.64.64,0,0,0,.31,0v1.27a1.51,1.51,0,0,1-.75,0C179.57,111.25,179.33,110.3,179.45,109Z" transform="translate(-31.45 -28.12)" fill="#c89749"/>
            <path id="패스_3709" data-name="패스 3709" d="M181.21,113.57l.31-1.26a.61.61,0,0,0,.21.12c.3.08.48-.15.59-.52l.08-.27-.73-5.61,1,.25.22,2.38c0,.52.06,1,.1,1.61h0l.36-1.49.59-2.18.95.24L183.3,112c-.45,1.33-.86,1.94-1.62,1.75a1.14,1.14,0,0,1-.47-.18Z" transform="translate(-31.45 -28.12)" fill="#c89749"/>
            <path id="패스_3710" data-name="패스 3710" d="M61.58,138.51c-4.31,3.19-9.42,9.7-10.66,22.85l-1.24,14.53c-1.26,9.65-4,23.41-9.24,43.68-17,65.47-4,65.2-4,65.2" transform="translate(-31.45 -28.12)" fill="none" stroke="#fff" stroke-linecap="round" stroke-linejoin="round" stroke-width="1"/>
          </g>
        </g>
      </g>
    </g>
  </g>
</svg>
