<svg id="레이어_2" data-name="레이어 2" xmlns="http://www.w3.org/2000/svg" width="116" height="35.768" viewBox="0 0 116 35.768">
  <g id="레이어_1" data-name="레이어 1">
    <path id="패스_2456" data-name="패스 2456" d="M4.294,12.17h6.3c3.957,0,6.88,1.241,5.821,5.189-1.025,3.784-4.757,5.453-8.571,5.453h-2.1L4.324,28.1H0Zm4.147,7.615c2.1,0,3.351-.865,3.775-2.435s-.579-2.162-2.651-2.162H7.784l-1.224,4.6Z" transform="translate(0 -6.907)" fill="#e60012"/>
    <path id="패스_2457" data-name="패스 2457" d="M35.911,20.43h3.494l-.277,2.119h.1a6.516,6.516,0,0,1,4.562-2.417,3.758,3.758,0,0,1,1.6.255L43.773,23.66a5.57,5.57,0,0,0-1.444-.19,4.638,4.638,0,0,0-3.559,2.162l-1.877,6.98H32.62Z" transform="translate(-18.514 -11.345)" fill="#e60012"/>
    <path id="패스_2458" data-name="패스 2458" d="M57.017,26.536a8.874,8.874,0,0,1,8.242-6.4c3.957,0,5.189,2.547,4.324,5.881a7.567,7.567,0,0,1-.631,1.626H60.866c-.061,1.669,1.055,2.378,2.794,2.378a7.386,7.386,0,0,0,3.1-.774l.8,2.292a11.8,11.8,0,0,1-5.3,1.388C58.336,32.91,55.932,30.558,57.017,26.536Zm9.129-1.371c.333-1.22-.03-2.115-1.6-2.115a3.4,3.4,0,0,0-3.079,2.115Z" transform="translate(-32.052 -11.352)" fill="#e60012"/>
    <path id="패스_2459" data-name="패스 2459" d="M87.3,12.17h4.562l.1,7.252c.069,1.73-.035,3.36.026,5.094H92.1c.973-1.73,1.808-3.382,2.776-5.094l3.966-7.252h4.389L93.553,28.1H88.39Z" transform="translate(-49.294 -6.907)" fill="#e60012"/>
    <path id="패스_2460" data-name="패스 2460" d="M120.931,9.838a2.978,2.978,0,0,1,2.993-1.968c1.449,0,2.218.813,1.907,1.968a2.945,2.945,0,0,1-2.962,1.946C121.446,11.784,120.624,10.953,120.931,9.838Zm-.67,3.637h4.273l-3.282,12.182H117Z" transform="translate(-66.087 -4.467)" fill="#e60012"/>
    <path id="패스_2461" data-name="패스 2461" d="M132.357,26.536a8.874,8.874,0,0,1,8.242-6.4c3.961,0,5.189,2.547,4.324,5.881a7.351,7.351,0,0,1-.631,1.626H136.21C136.146,29.317,137.266,30,139,30a7.386,7.386,0,0,0,3.1-.774l.809,2.292a11.827,11.827,0,0,1-5.3,1.388C133.676,32.91,131.272,30.558,132.357,26.536Zm9.133-1.371c.329-1.22-.035-2.115-1.6-2.115a3.4,3.4,0,0,0-3.079,2.115Z" transform="translate(-74.599 -11.352)" fill="#e60012"/>
    <path id="패스_2462" data-name="패스 2462" d="M163.66,20.83h4.247l-.238,5.453c-.108,1.2-.29,2.422-.4,3.641h.121c.567-1.22,1.12-2.461,1.777-3.641l2.858-5.453h3.715v5.453c0,1.2-.1,2.422-.134,3.641h.121c.545-1.22.995-2.439,1.583-3.641l2.655-5.453h3.983l-6.508,12.182h-5.016l.1-4.644c.039-1.133.121-2.244.238-3.572h-.121c-.575,1.328-1.068,2.439-1.617,3.572l-2.361,4.644h-4.9Z" transform="translate(-92.389 -11.743)" fill="#e60012"/>
    <path id="패스_2463" data-name="패스 2463" d="M210.3,24.277l1.258-4.683H209.7l.761-2.824,2.141-.151,1.349-3.209h3.572l-.865,3.209h3.235l-.8,2.975h-3.235l-1.25,4.64c-.368,1.349.216,1.885,1.228,1.885a6.093,6.093,0,0,0,1.3-.216l-.065,2.742a12.809,12.809,0,0,1-3.235.432C210.4,29.091,209.518,27.166,210.3,24.277Z" transform="translate(-118.349 -7.551)" fill="#e60012"/>
    <path id="패스_2464" data-name="패스 2464" d="M226.72,37.453l1.548-2.889a4.731,4.731,0,0,0,.865.151,2.988,2.988,0,0,0,2.685-1.457l.359-.618-2.071-11.81h4.324l.471,5.051c.108,1.111.1,2.249.134,3.46h.117c.579-1.155,1.2-2.288,1.825-3.46l2.954-5.051h4.078l-7.987,12.182c-2.193,3.122-4.082,4.662-7.352,4.662A6.69,6.69,0,0,1,226.72,37.453Z" transform="translate(-128.009 -11.723)" fill="#e60012"/>
    <path id="패스_2465" data-name="패스 2465" d="M256.035,0a2.915,2.915,0,1,0,2.915,2.915A2.915,2.915,0,0,0,256.035,0Zm1.587,4.878-1.016-1.587a1.211,1.211,0,0,0,.649-.368,1.042,1.042,0,0,0,.229-.709.93.93,0,0,0-.368-.77,1.73,1.73,0,0,0-1.068-.285h-1.176V4.878h.48V3.369h.8l.865,1.509h.61a2.525,2.525,0,1,1,.943-1.963,2.526,2.526,0,0,1-.943,1.963Zm-1.232-1.89a2.4,2.4,0,0,1-.463.039h-.575v-1.5h.744a1.487,1.487,0,0,1,.346.039.835.835,0,0,1,.281.125.6.6,0,0,1,.195.221.662.662,0,0,1,.069.32.929.929,0,0,1-.069.385.532.532,0,0,1-.2.246.9.9,0,0,1-.329.13Z" transform="translate(-142.993)" fill="#e60012"/>
    <path id="패스_2466" data-name="패스 2466" d="M192.177,59.345c0-.216-.177-.285-.406-.285h-.381v.947h.221v-.359h.151l.225.359h.238l-.255-.389A.272.272,0,0,0,192.177,59.345Zm-.432.151h-.138v-.29h.138c.138,0,.216.035.216.138s-.074.151-.212.151Z" transform="translate(-108.142 -33.368)" fill="#00afec"/>
    <path id="패스_2467" data-name="패스 2467" d="M191.056,58.1a.891.891,0,1,0,.887.865A.891.891,0,0,0,191.056,58.1Zm0,1.648a.761.761,0,1,1,.541-.221.761.761,0,0,1-.541.221Z" transform="translate(-107.444 -32.822)" fill="#00afec"/>
    <path id="패스_2468" data-name="패스 2468" d="M183.515,66a14.819,14.819,0,0,0-1.795-.212c.022.541.03,1.081.03,1.622s0,1.107-.026,1.656a14.971,14.971,0,0,0,1.76-.117,1.064,1.064,0,0,0,.748-.476,1.937,1.937,0,0,0,.2-.947C184.436,66.806,184.233,66.175,183.515,66Z" transform="translate(-102.671 -37.134)" fill="#00afec"/>
    <path id="패스_2469" data-name="패스 2469" d="M175.5,58.553a5.466,5.466,0,1,0,0,7.736A5.466,5.466,0,0,0,175.5,58.553Z" transform="translate(-93.851 -32.119)" fill="#00afec"/>
    <path id="패스_2470" data-name="패스 2470" d="M182.11,64.029a12.584,12.584,0,0,0-2.75-.329q.026,1.258.026,2.517v2.595a19.026,19.026,0,0,0,2.711-.2c1.12-.221,1.449-1.034,1.44-2.205C183.5,65.309,183.174,64.323,182.11,64.029Zm.865,3.269a1.064,1.064,0,0,1-.744.467,14.959,14.959,0,0,1-1.756.117c0-.549.026-1.1.022-1.656s0-1.081-.03-1.622a14.819,14.819,0,0,1,1.795.212c.718.173.921.8.921,1.535a1.99,1.99,0,0,1-.2.938Z" transform="translate(-101.331 -35.948)" fill="#fff"/>
    <path id="패스_2471" data-name="패스 2471" d="M173.231,64.711c-.039-.731-.333-.891-.938-.865a5.82,5.82,0,0,0-2.72.722,5.333,5.333,0,0,0-.138.644,8.422,8.422,0,0,1,2.794-.523c0,.355-.022.714-.026,1.068a19.506,19.506,0,0,0-2.244.156v.791c.748,0,1.5-.035,2.249-.035v1.3a17.56,17.56,0,0,1-2.807-.238c.035.229.074.458.13.683a8.533,8.533,0,0,0,2.8.432c.627,0,.865-.251.887-.964V65.5C173.214,65.235,173.244,64.975,173.231,64.711Z" transform="translate(-95.706 -36.029)" fill="#fff"/>
    <path id="패스_2472" data-name="패스 2472" d="M101.946,76.954c-.048.125-.091.264-.138.4h0c-.048-.134-.091-.272-.138-.4l-.389-.964h-.51v2.058h.432v-.865c0-.2-.039-.484-.061-.679h0l.182.484.355.865h.259l.355-.865.186-.484h0c0,.195-.056.48-.056.679v.865h.432V75.994h-.506Z" transform="translate(-56.936 -42.923)" fill="#fff"/>
    <path id="패스_2473" data-name="패스 2473" d="M107.364,77.059a.817.817,0,1,0,.83.822.8.8,0,0,0-.83-.822Zm0,1.3c-.234,0-.363-.19-.363-.48s.13-.489.363-.489.368.19.368.489-.117.484-.368.484Z" transform="translate(-60.208 -43.529)" fill="#fff"/>
    <path id="패스_2474" data-name="패스 2474" d="M111.642,77.375h0l-.035-.277h-.368v1.557h.432v-.93a.432.432,0,0,1,.4-.307.726.726,0,0,1,.177.026l.082-.355a.592.592,0,0,0-.2-.03A.6.6,0,0,0,111.642,77.375Z" transform="translate(-62.854 -43.53)" fill="#fff"/>
    <path id="패스_2475" data-name="패스 2475" d="M115.274,77.06a.839.839,0,0,0-.506.2h0l-.03-.16h-.368v2.162h.432v-.752a.679.679,0,0,0,.432.169.77.77,0,0,0,.735-.865A.707.707,0,0,0,115.274,77.06Zm-.156,1.3a.51.51,0,0,1-.316-.117v-.683a.506.506,0,0,1,.342-.16c.238,0,.342.164.342.463S115.326,78.357,115.118,78.357Z" transform="translate(-64.621 -43.53)" fill="#fff"/>
    <path id="패스_2476" data-name="패스 2476" d="M119.9,76.243a.822.822,0,0,0-.545.229V75.62h-.432v2.218h.432V76.766a.523.523,0,0,1,.363-.173c.169,0,.242.086.242.324v.921h.432v-.973C120.429,76.476,120.252,76.243,119.9,76.243Z" transform="translate(-67.192 -42.713)" fill="#fff"/>
    <path id="패스_2477" data-name="패스 2477" d="M124.061,77.059a.818.818,0,1,0,.052,1.635,1.15,1.15,0,0,0,.605-.173l-.156-.251a.766.766,0,0,1-.389.108.432.432,0,0,1-.476-.389h1.064a.64.64,0,0,0,0-.186.679.679,0,0,0-.7-.744Zm-.372.662a.376.376,0,0,1,.381-.346.3.3,0,0,1,.324.346Z" transform="translate(-69.65 -43.53)" fill="#fff"/>
    <path id="패스_2478" data-name="패스 2478" d="M128.655,78.2a.432.432,0,0,1-.355.195c-.164,0-.238-.082-.238-.324V77.15h-.432v.973c0,.389.16.623.532.623a.709.709,0,0,0,.549-.264h0l.035.225h.372V77.15h-.463Z" transform="translate(-72.114 -43.581)" fill="#fff"/>
    <path id="패스_2479" data-name="패스 2479" d="M132.661,77.735c-.177-.061-.35-.1-.35-.221s.074-.147.229-.147a.692.692,0,0,1,.372.13l.2-.247a1.034,1.034,0,0,0-.588-.19c-.385,0-.64.2-.64.48s.255.376.471.432.359.121.359.234-.074.169-.251.169A.822.822,0,0,1,132,78.2l-.2.255a1.142,1.142,0,0,0,.657.221c.432,0,.688-.221.688-.493S132.89,77.808,132.661,77.735Z" transform="translate(-74.47 -43.53)" fill="#fff"/>
    <path id="패스_2480" data-name="패스 2480" d="M138.225,77.661c-.359,0-.592-.272-.592-.718a.623.623,0,0,1,.6-.709.6.6,0,0,1,.432.173l.242-.264a.982.982,0,0,0-.67-.264,1.025,1.025,0,0,0-1.059,1.077,1.038,1.038,0,0,0,1.773.757l-.242-.255A.67.67,0,0,1,138.225,77.661Z" transform="translate(-77.507 -42.86)" fill="#fff"/>
    <path id="패스_2481" data-name="패스 2481" d="M142.625,77.059a.817.817,0,1,0,.83.839.8.8,0,0,0-.83-.839Zm0,1.3c-.234,0-.368-.19-.368-.48s.134-.489.368-.489.368.19.368.489-.13.484-.368.484Z" transform="translate(-80.131 -43.529)" fill="#fff"/>
    <path id="패스_2482" data-name="패스 2482" d="M146.625,79.609a.268.268,0,0,0-.285.264.285.285,0,0,0,.567,0,.268.268,0,0,0-.281-.264Z" transform="translate(-82.688 -44.977)" fill="#fff"/>
    <path id="패스_2483" data-name="패스 2483" d="M148.88,79.61c-.16,0-.294.091-.294.238a.259.259,0,0,0,.285.242h.026c0,.164-.13.3-.368.385l.1.221a.722.722,0,0,0,.584-.688C149.209,79.779,149.088,79.61,148.88,79.61Z" transform="translate(-83.925 -44.977)" fill="#fff"/>
    <path id="패스_2484" data-name="패스 2484" d="M153.188,76h-.458v2.054h1.384v-.346h-.925Z" transform="translate(-86.296 -42.929)" fill="#fff"/>
    <path id="패스_2485" data-name="패스 2485" d="M157.074,77.854c-.156,0-.234-.082-.234-.259V76.9h.432v-.32h-.432V76.15h-.381l-.052.432h-.268v.3h.247v.692a.51.51,0,0,0,.558.605,1.3,1.3,0,0,0,.363-.056l-.074-.3A.532.532,0,0,1,157.074,77.854Z" transform="translate(-88.224 -43.014)" fill="#fff"/>
    <path id="패스_2486" data-name="패스 2486" d="M160.311,76.165v.246a.614.614,0,0,0-.432-.169.757.757,0,0,0-.722.822c0,.51.277.813.7.813a.731.731,0,0,0,.48-.2h0l.035.164h.368V75.62h-.432Zm0,1.215a.389.389,0,0,1-.32.16c-.225,0-.355-.16-.355-.484s.16-.476.355-.476a.48.48,0,0,1,.32.117Z" transform="translate(-89.925 -42.713)" fill="#fff"/>
    <path id="패스_2487" data-name="패스 2487" d="M164.24,79.609a.264.264,0,0,0-.281.264.281.281,0,1,0,.281-.264Z" transform="translate(-92.644 -44.977)" fill="#fff"/>
    <path id="패스_2488" data-name="패스 2488" d="M60.72,64.64a5.561,5.561,0,0,0,1.271,3.546v-7.1a5.561,5.561,0,0,0-1.271,3.55Z" transform="translate(-34.308 -34.466)" fill="#fff"/>
    <path id="패스_2489" data-name="패스 2489" d="M66.83,57.294l2.8,5.189,2.794-5.189a5.276,5.276,0,0,0-2.807-.8,5.332,5.332,0,0,0-2.785.8Z" transform="translate(-37.754 -31.856)" fill="#fff"/>
    <path id="패스_2490" data-name="패스 2490" d="M69.821,70.574a.744.744,0,0,1-.662-.432l-1.989-3.7v6.054a5.319,5.319,0,0,0,5.306,0V66.44l-1.989,3.7A.748.748,0,0,1,69.821,70.574Z" transform="translate(-37.947 -37.503)" fill="#fff"/>
    <path id="패스_2491" data-name="패스 2491" d="M88.034,62.5h-.125a1.245,1.245,0,0,0-.255.03,1.068,1.068,0,0,0-.125.026l-.143.043a2.288,2.288,0,0,0-.6.281c-.108.065-.2.13-.268.177a.735.735,0,0,1-.1.074l-.043.035h0a1.648,1.648,0,0,1-1.228.311h-.061a1.205,1.205,0,0,1-.169-.043h-.043l-.078-.03a2.651,2.651,0,0,1-1.155-1.2h0A5.439,5.439,0,0,0,83,61.2v7.01a5.791,5.791,0,0,0,.644-1h0a2.651,2.651,0,0,1,1.155-1.2l.078-.03h.043l.169-.048h.061a1.643,1.643,0,0,1,1.228.307h0l.043.035.1.074a3.212,3.212,0,0,0,.268.177,2.3,2.3,0,0,0,.6.285l.143.043a1.071,1.071,0,0,0,.125.026,1.245,1.245,0,0,0,.255.03h.125a2.2,2.2,0,0,0,0-4.4Zm.065,3.321a1.12,1.12,0,1,1,1.12-1.12A1.12,1.12,0,0,1,88.1,65.823Z" transform="translate(-46.886 -34.529)" fill="#fff"/>
    <path id="패스_2492" data-name="패스 2492" d="M127.666,68.066v-3.49a.493.493,0,0,0-.986,0v1.25h-2.513v-1.25a.5.5,0,1,0-.99,0v3.49a.5.5,0,1,0,.99,0v-1.25h2.513v1.25a.493.493,0,0,0,.986,0Z" transform="translate(-69.588 -36.137)" fill="#fff"/>
    <path id="패스_2493" data-name="패스 2493" d="M136.951,68.624h.683a.5.5,0,0,0,0-.99H135.42v-.757h2.214a.5.5,0,0,0,0-.99H135.42V65.13h2.214a.5.5,0,0,0,0-.99h-2.711a.493.493,0,0,0-.493.5v3.49a.5.5,0,0,0,.493.5h2.028Z" transform="translate(-75.949 -36.197)" fill="#fff"/>
    <path id="패스_2494" data-name="패스 2494" d="M114.385,67.029h.592a1.444,1.444,0,1,0,0-2.889h-2.625a.493.493,0,0,0-.493.5v3.49a.493.493,0,0,0,.986,0v-1.1h1.544Zm-1.544-.99V65.13h2.136a.454.454,0,1,1,0,.908Z" transform="translate(-63.195 -36.197)" fill="#fff"/>
    <path id="패스_2495" data-name="패스 2495" d="M157.248,66.05h-1.557a.359.359,0,1,1,0-.714H157.6a.493.493,0,0,0,0-.986h-1.968a1.345,1.345,0,0,0,.056,2.686h1.557a.359.359,0,1,1,0,.718h-2.193a.5.5,0,1,0,0,.99h2.193a1.349,1.349,0,0,0,0-2.694Z" transform="translate(-87.224 -36.317)" fill="#fff"/>
    <path id="패스_2496" data-name="패스 2496" d="M103.762,64.094h-2.629a.493.493,0,0,0-.493.5v3.49a.493.493,0,0,0,.986,0v-1.15h1.232l1.068,1.427a.506.506,0,0,0,.4.2.5.5,0,0,0,.394-.791l-.627-.865a1.44,1.44,0,0,0-.333-2.845Zm0,1.894H101.6v-.9h2.136a.452.452,0,0,1,0,.9Z" transform="translate(-56.857 -36.152)" fill="#fff"/>
    <path id="패스_2497" data-name="패스 2497" d="M148.1,65.469V64.6h0a.5.5,0,1,0-.99,0h0v2a.99.99,0,0,1-.99.99h-.368a1,1,0,0,1-.99-.99v-2.02h0a.5.5,0,1,0-.99,0h0v2a1.985,1.985,0,0,0,1.981,1.981h.368a1.985,1.985,0,0,0,1.981-1.981Z" transform="translate(-81.221 -36.142)" fill="#fff"/>
  </g>
</svg>
