<svg xmlns="http://www.w3.org/2000/svg" xmlns:xlink="http://www.w3.org/1999/xlink" width="366" height="296" viewBox="0 0 366 296">
  <defs>
    <clipPath id="clip-path">
      <rect id="사각형_2406" data-name="사각형 2406" width="366" height="296" transform="translate(4732 2536)" fill="#111"/>
    </clipPath>
    <clipPath id="clip-path-2">
      <rect id="사각형_2312" data-name="사각형 2312" width="320.168" height="227.19" transform="translate(0 73.709) rotate(-13.31)" fill="none"/>
    </clipPath>
    <linearGradient id="linear-gradient" x1="0.5" x2="0.5" y2="1" gradientUnits="objectBoundingBox">
      <stop offset="0" stop-color="#c89749"/>
      <stop offset="0.12" stop-color="#ffee9d"/>
      <stop offset="0.2" stop-color="#deac55"/>
      <stop offset="0.46" stop-color="#fddd90"/>
      <stop offset="0.73" stop-color="#e8c576"/>
      <stop offset="1" stop-color="#ca983e"/>
    </linearGradient>
  </defs>
  <g id="마스크_그룹_47" data-name="마스크 그룹 47" transform="translate(-4732 -2536)" clip-path="url(#clip-path)">
    <g id="그룹_9837" data-name="그룹 9837" transform="translate(4733 2526.001)" clip-path="url(#clip-path-2)">
      <path id="패스_3135" data-name="패스 3135" d="M91.554,170.271c.145,0,.193-.193.184-.435v-.4H91.1v.222h.241v.164l-.241.232v.261l.251-.27C91.39,170.184,91.457,170.271,91.554,170.271Zm-.116-.454v-.155h.193v.155c0,.145,0,.222-.1.222S91.438,169.981,91.438,169.817Z" transform="translate(-3.104 -5.76)" fill="url(#linear-gradient)"/>
      <path id="패스_3136" data-name="패스 3136" d="M92.007,169.8c0-.512-.28-.966-.618-.966s-.6.415-.589.966.29.966.628.966S92.017,170.317,92.007,169.8Zm-1.12,0c0-.444.222-.8.5-.8s.522.357.531.8-.212.8-.493.8S90.9,170.24,90.887,169.8Z" transform="translate(-3.094 -5.739)" fill="url(#linear-gradient)"/>
      <path id="패스_3137" data-name="패스 3137" d="M89.435,166.762c.068-.464.1-1.43.116-1.932H87.32c0,.377.058,1.478.116,1.855a1.372,1.372,0,0,0,.328.792,1.063,1.063,0,0,0,.657.212C88.943,167.728,89.339,167.515,89.435,166.762Z" transform="translate(-2.975 -5.603)" fill="url(#linear-gradient)"/>
      <path id="패스_3138" data-name="패스 3138" d="M85.053,127.957l-.27-.145h0c.087-.048.174-.087.261-.145l.647-.406v-.531H84.28v.435h.589a3.966,3.966,0,0,0,.454-.068h0l-.328.193-.58.377v.27l.589.377.338.193h0a2.558,2.558,0,0,0-.464-.068H84.3v.444h1.39v-.531Z" transform="translate(-2.872 -4.303)" fill="url(#linear-gradient)"/>
      <path id="패스_3139" data-name="패스 3139" d="M85.431,130.259c0-.454-.213-.879-.57-.879s-.551.425-.541.879.222.879.57.879S85.44,130.713,85.431,130.259Zm-.879,0c0-.251.116-.386.319-.386s.328.145.338.386a.328.328,0,0,1-.328.386C84.677,130.645,84.552,130.51,84.552,130.259Z" transform="translate(-2.873 -4.394)" fill="url(#linear-gradient)"/>
      <path id="패스_3140" data-name="패스 3140" d="M85.249,132.046h.193v-.4H84.38v.473h.6a.512.512,0,0,1,.213.425.531.531,0,0,1,0,.184l.251.087a1.141,1.141,0,0,0,0-.213.763.763,0,0,0-.195-.556Z" transform="translate(-2.875 -4.471)" fill="url(#linear-gradient)"/>
      <path id="패스_3141" data-name="패스 3141" d="M85.487,134.057a1.246,1.246,0,0,0-.145-.541h.106v-.386H84v.473h.493a.966.966,0,0,0-.106.444c0,.406.232.782.589.782S85.5,134.5,85.487,134.057Zm-.879-.164a.734.734,0,0,1,.068-.338h.464a.686.686,0,0,1,.116.367c0,.251-.106.357-.3.357a.348.348,0,0,1-.348-.386Z" transform="translate(-2.862 -4.522)" fill="url(#linear-gradient)"/>
      <path id="패스_3142" data-name="패스 3142" d="M85.541,136.283a1.082,1.082,0,0,0-.164-.58h.57v-.473H84.44v.473h.734a.7.7,0,0,1,.116.386c0,.174,0,.261-.212.251H84.45v.483h.666C85.4,136.843,85.551,136.669,85.541,136.283Z" transform="translate(-2.877 -4.593)" fill="url(#linear-gradient)"/>
      <path id="패스_3143" data-name="패스 3143" d="M85.581,138.14c0-.435-.232-.85-.57-.85s-.551.4-.541.908a1.932,1.932,0,0,0,.126.637l.174-.164a1.179,1.179,0,0,1-.087-.415c0-.27.087-.464.261-.5v1.12h.126C85.378,138.942,85.59,138.642,85.581,138.14Zm-.454-.4a.4.4,0,0,1,.241.4c0,.241-.087.348-.232.348Z" transform="translate(-2.878 -4.664)" fill="url(#linear-gradient)"/>
      <path id="패스_3144" data-name="패스 3144" d="M84.887,140.451a.56.56,0,0,1-.145-.377c0-.174.058-.251.213-.251h.628v-.483h-.657c-.27,0-.425.174-.415.56a1.024,1.024,0,0,0,.193.589h-.155v.386H85.6V140.4Z" transform="translate(-2.88 -4.733)" fill="url(#linear-gradient)"/>
      <path id="패스_3145" data-name="패스 3145" d="M85.2,142.238c0-.184.058-.367.145-.367s.1.077.1.241a.966.966,0,0,1-.077.4l.174.212a1.526,1.526,0,0,0,.116-.618c0-.415-.145-.686-.338-.686s-.251.27-.3.5-.068.386-.145.386-.116-.087-.126-.27a1.178,1.178,0,0,1,.116-.493l-.184-.213a1.748,1.748,0,0,0-.135.7c0,.473.164.724.348.724S85.149,142.479,85.2,142.238Z" transform="translate(-2.881 -4.801)" fill="url(#linear-gradient)"/>
      <path id="패스_3146" data-name="패스 3146" d="M84.831,144.961c0-.377.174-.618.483-.618s.483.27.493.637a.889.889,0,0,1-.116.444l.184.251a1.342,1.342,0,0,0,.174-.705c0-.609-.29-1.12-.753-1.12s-.715.493-.705,1.1a1.4,1.4,0,0,0,.222.763l.174-.251a.966.966,0,0,1-.156-.5Z" transform="translate(-2.882 -4.887)" fill="url(#linear-gradient)"/>
      <path id="패스_3147" data-name="패스 3147" d="M85.741,146.909c0-.454-.222-.869-.57-.869s-.551.415-.541.869.222.879.57.879S85.75,147.373,85.741,146.909Zm-.879,0c0-.241.116-.386.319-.386s.328.145.338.386a.328.328,0,0,1-.328.386c-.2,0-.328-.135-.328-.386Z" transform="translate(-2.884 -4.962)" fill="url(#linear-gradient)"/>
      <path id="패스_3148" data-name="패스 3148" d="M84.987,148.49c0-.164-.077-.29-.184-.29s-.174.126-.174.29.087.3.184.3S84.987,148.664,84.987,148.49Z" transform="translate(-2.884 -5.036)" fill="url(#linear-gradient)"/>
      <path id="패스_3149" data-name="패스 3149" d="M85.024,149.6c0-.174-.068-.319-.164-.319s-.164.145-.164.3h0c-.106,0-.2-.145-.261-.4l-.145.106c.077.386.251.609.473.609S85.034,149.818,85.024,149.6Z" transform="translate(-2.872 -5.069)" fill="url(#linear-gradient)"/>
      <path id="패스_3150" data-name="패스 3150" d="M81.85,97.723l-.01-.483h-1.4l.029,1.459H80.7l-.01-.976Z" transform="translate(1.403 48.842)" fill="url(#linear-gradient)"/>
      <path id="패스_3151" data-name="패스 3151" d="M84.992,153.815c0-.164.048-.241.164-.241h.473v.444h.213v-.444h.29v-.406l-.29-.058v-.28h-.213v.261h-.473c-.232,0-.386.164-.386.6a2.8,2.8,0,0,0,0,.377l.222-.106A.967.967,0,0,1,84.992,153.815Z" transform="translate(-2.888 -5.193)" fill="url(#linear-gradient)"/>
      <path id="패스_3152" data-name="패스 3152" d="M85.959,155.477h-.164a.889.889,0,0,0,.106-.464c0-.386-.222-.763-.57-.763s-.551.29-.541.744a1.024,1.024,0,0,0,.145.5h-.106v.386h1.507v-.48Zm-.821,0a.5.5,0,0,1-.116-.338c0-.241.1-.377.319-.377a.338.338,0,0,1,.328.377.686.686,0,0,1-.068.338Z" transform="translate(-2.889 -5.242)" fill="url(#linear-gradient)"/>
      <path id="패스_3153" data-name="패스 3153" d="M85.177,156.819c0-.174-.087-.3-.193-.3s-.174.126-.174.3.087.3.193.3S85.177,156.984,85.177,156.819Z" transform="translate(-2.89 -5.319)" fill="url(#linear-gradient)"/>
      <path id="패스_3154" data-name="패스 3154" d="M87.328,107.77A3.033,3.033,0,0,0,85,109.1h4.83a3.187,3.187,0,0,0-2.43-1.34Z" transform="translate(-2.896 -3.657)" fill="url(#linear-gradient)"/>
      <path id="패스_3155" data-name="패스 3155" d="M90.667,110.66l-3.477,2.9,3.583,2.956a7.978,7.978,0,0,0,.483-2.956,8.085,8.085,0,0,0-.589-2.9Z" transform="translate(-2.971 -3.755)" fill="url(#linear-gradient)"/>
      <path id="패스_3156" data-name="패스 3156" d="M85.427,113.611a.879.879,0,0,1,.27-.7l2.473-2.1h-4.1a7.94,7.94,0,0,0-.425,2.782,8.268,8.268,0,0,0,.541,2.811h4.1l-2.55-2.106a.889.889,0,0,1-.3-.682Z" transform="translate(-2.85 -3.761)" fill="url(#linear-gradient)"/>
      <path id="패스_3157" data-name="패스 3157" d="M89.11,123.606v-.135h0v-.551a3.187,3.187,0,0,0-.2-.628,2.832,2.832,0,0,0-.126-.28v-.106h0a2.531,2.531,0,0,1-.232-1.294.193.193,0,0,1,0-.068.551.551,0,0,1,0-.174h0a.28.28,0,0,0,0-.087,2.386,2.386,0,0,1,.792-1.217h0a3.69,3.69,0,0,0,.666-.676H85.15a4.6,4.6,0,0,0,.686.686h0a2.511,2.511,0,0,1,.831,1.227v.077a.087.087,0,0,0,0,.048v.241a2.55,2.55,0,0,1-.184,1.294h0v.106a2.25,2.25,0,0,0-.116.29,2.385,2.385,0,0,0-.184.628v.28a1.275,1.275,0,0,0,0,.27h0v.126c0,1.285.715,2.318,1.536,2.328S89.139,124.891,89.11,123.606Zm-2.251.068c0-.657.319-1.178.744-1.178s.763.522.782,1.178-.328,1.178-.744,1.178-.762-.531-.781-1.179Z" transform="translate(-2.901 -4.019)" fill="url(#linear-gradient)"/>
      <path id="패스_3158" data-name="패스 3158" d="M86.805,142h2.366c.184,0,.328-.232.319-.522s-.155-.522-.338-.522H88.3V138.3h.85c.184,0,.328-.241.319-.522s-.155-.522-.338-.522H86.718c-.193,0-.338.232-.328.522s.155.522.338.522h.85v2.656h-.792c-.193,0-.338.232-.328.512S86.612,142,86.805,142Z" transform="translate(-2.944 -4.662)" fill="url(#linear-gradient)"/>
      <path id="패스_3159" data-name="패스 3159" d="M86.528,145.239v.715c0,.29.164.522.348.531s.328-.241.319-.531v-2.328h.512v2.337c0,.29.164.522.348.522s.328-.232.328-.522v-2.337h.531v2.338c0,.29.155.522.348.522s.328-.232.319-.522v-2.772h0c0-.29-.155-.522-.348-.522H86.808c-.184,0-.328.232-.328.512v.773Z" transform="translate(-2.947 -4.847)" fill="url(#linear-gradient)"/>
      <path id="패스_3160" data-name="패스 3160" d="M87.41,134.586v.618c0,.85.464,1.526.966,1.526s.966-.676.966-1.516l-.058-2.772c0-.29-.155-.522-.338-.522H86.618c-.184,0-.338.232-.328.522s.155.522.348.522h.744v1.343Zm.637-1.632h.618v2.26c0,.261-.126.473-.3.473s-.309-.212-.309-.473v-1.69Z" transform="translate(-2.94 -4.48)" fill="url(#linear-gradient)"/>
      <path id="패스_3161" data-name="패스 3161" d="M88.535,155.021v-.126h0V153.35c0-.212.1-.377.232-.377s.241.174.251.377v2.019c0,.29.155.522.338.522s.338-.232.328-.522v-2.086c0-.753-.444-1.362-.966-1.362s-.9.638-.889,1.42v.1h0v1.545c0,.213-.1.377-.232.377s-.251-.164-.251-.377v-2.309c0-.29-.155-.531-.338-.531s-.328.232-.328.522v2.318c0,.782.435,1.42.966,1.42S88.544,155.8,88.535,155.021Z" transform="translate(-2.954 -5.162)" fill="url(#linear-gradient)"/>
      <path id="패스_3162" data-name="패스 3162" d="M89.281,129.884v-2.772c0-.29-.164-.522-.348-.522H86.518c-.184,0-.328.232-.328.522s.164.522.348.522h.782v1.285l-.966,1.13a.647.647,0,0,0-.135.415.811.811,0,0,0,.077.309c.116.232.319.29.473.116l.56-.657c.116.666.512,1.169.966,1.169S89.291,130.753,89.281,129.884Zm-1.285,0v-2.26h.6v2.251c0,.261-.135.483-.3.483s-.3-.174-.309-.425Z" transform="translate(-2.937 -4.299)" fill="url(#linear-gradient)"/>
      <path id="패스_3163" data-name="패스 3163" d="M88.744,151.559h.6c.184,0,.328-.232.328-.522s-.164-.522-.348-.522H87.952c-.367,0-.676-.473-.686-1.043v-.4c0-.57.28-1.043.647-1.043h1.362c.193,0,.338-.232.328-.522s-.155-.522-.338-.522H87.894c-.734,0-1.323.966-1.294,2.086v.386c0,1.159.637,2.1,1.381,2.1Z" transform="translate(-2.951 -4.994)" fill="url(#linear-gradient)"/>
      <path id="패스_3164" data-name="패스 3164" d="M89.445,166.862c.058-.464.1-1.439.106-1.932H87.33a10.863,10.863,0,0,0,.106,1.855,1.381,1.381,0,0,0,.338.792.966.966,0,0,0,.647.212C88.943,167.828,89.339,167.615,89.445,166.862Z" transform="translate(-2.976 -5.606)" fill="url(#linear-gradient)"/>
      <path id="패스_3165" data-name="패스 3165" d="M91.014,167.363a8.22,8.22,0,0,0-.164-8.152c-1.5-2.251-3.864-2.251-5.245,0a8.21,8.21,0,0,0,.164,8.162C87.256,169.623,89.6,169.623,91.014,167.363Zm-3.226-4.327a5.054,5.054,0,0,1-.541,0c-.483,0-.638-.27-.666-.966a13.7,13.7,0,0,1,.251-2.946,2.693,2.693,0,0,1,.454-.135,29.21,29.21,0,0,0-.106,2.956h.889c0-.792,0-1.584-.068-2.376a4.979,4.979,0,0,1,.531,0c.077.782.126,1.574.155,2.366h.724A13.976,13.976,0,0,0,89,158.979a3.413,3.413,0,0,1,.444.145,9.1,9.1,0,0,1,.541,2.9c0,.638-.077.966-.57.966a5.054,5.054,0,0,1-.541,0H87.787ZM86.764,166.4c-.1-.705-.164-2.144-.184-2.9h3.468a22.475,22.475,0,0,1-.164,2.9,1.516,1.516,0,0,1-1.594,1.468C87.5,167.926,86.918,167.588,86.764,166.4Z" transform="translate(-2.883 -5.353)" fill="url(#linear-gradient)"/>
      <path id="빼기_1" data-name="빼기 1" d="M17.48,6.434h-.064L1.03,5.491A1.093,1.093,0,0,1,0,4.34L.19,1.03A1.092,1.092,0,0,1,1.282,0h.063L17.731.946A1.09,1.09,0,0,1,18.757,2.1l-.191,3.311A1.089,1.089,0,0,1,17.48,6.434ZM15.725,4.517h0l-.049.174a.443.443,0,0,0,.355.176.424.424,0,0,0,.1-.012h.035a.426.426,0,0,0,.312-.136.976.976,0,0,0,.165-.58V3.049L16.382,3v.194a.318.318,0,0,0-.28-.241h-.01c-.214,0-.425.313-.444.656a.767.767,0,0,0,.154.555.277.277,0,0,0,.2.093h.017A.32.32,0,0,0,16.3,4.1a.223.223,0,0,1-.107.022h-.029c-.175-.009-.252-.159-.241-.473.009-.293.175-.474.291-.474h.008a.262.262,0,0,1,.222.261v.106l-.029.232c0,.013,0,.015.01.017s.022.01-.01.108l-.006.019a.344.344,0,0,1-.09.171V4.063a.076.076,0,0,1-.008.018L16.3,4.1l.016-.01V4.2c-.018.3-.119.435-.319.435a.434.434,0,0,1-.27-.116ZM8.268,2.547l.27,1.207a.161.161,0,0,1,0,.058V3.87a.654.654,0,0,1-.155.251.34.34,0,0,1-.154.1v.2a.413.413,0,0,0,.222-.135A2.5,2.5,0,0,0,8.809,3.5l.309-.9H8.944l-.232.744-.076.27v-.27l-.155-.773-.212-.029Zm8.927.482c-.25,0-.438.27-.456.657a.757.757,0,0,0,.156.563.357.357,0,0,0,.269.114h.047a.588.588,0,0,0,.262-.06V4.131a.4.4,0,0,1-.2.053.408.408,0,0,1-.06,0c-.108-.007-.29-.074-.29-.455l.637.029a.3.3,0,0,0,0-.106.746.746,0,0,0-.135-.511.288.288,0,0,0-.2-.106ZM14.55,2.952c-.245,0-.429.274-.448.667a.743.743,0,0,0,.153.553.361.361,0,0,0,.272.114h.047a.6.6,0,0,0,.263-.06V4.063a.612.612,0,0,1-.131.014.6.6,0,0,1-.13-.014c-.187-.011-.29-.176-.29-.464l.637.086a.351.351,0,0,0,0-.106.758.758,0,0,0-.14-.518.294.294,0,0,0-.207-.109Zm.614.01v.406l.049.889h.165V3.571a.356.356,0,0,1,0-.107c.03-.181.12-.289.241-.289h.058V2.953h-.111c-.108,0-.209.1-.256.261V2.962Zm-1.381-.077L13.706,4.17h.174l.068-1.284Zm-.456-.05c-.286,0-.491.26-.509.648a.78.78,0,0,0,.161.572.357.357,0,0,0,.264.114h.01a.532.532,0,0,0,.26-.067l.02-.174a.4.4,0,0,1-.208.058c-.188-.019-.314-.235-.3-.5.02-.286.157-.464.357-.464a.325.325,0,0,1,.193.067V2.914a.338.338,0,0,0-.214-.077h-.039Zm-1.17.126h.022c.193.01.193.185.193.387v.743h.164l.049-.763a.641.641,0,0,0-.127-.49.245.245,0,0,0-.173-.08.338.338,0,0,0-.319.232V2.778h-.155V4.063h.126V3.3a.42.42,0,0,1,0-.116l.01-.035c.033-.105.053-.188.211-.188Zm-.979-.252c-.248,0-.44.266-.467.648-.029.4.184.667.406.686h.032c.222,0,.461-.2.461-.649.027-.377-.143-.665-.406-.686Zm-.918-.587c-.357,0-.6.356-.631.907a1.094,1.094,0,0,0,.222.808A.5.5,0,0,0,10.219,4a.424.424,0,0,0,.059,0,.588.588,0,0,0,.279-.071l-.019-.2a.6.6,0,0,1-.258.059h-.022c-.32-.021-.482-.285-.454-.744s.223-.7.551-.7a.4.4,0,0,1,.251.086l.049-.183a.465.465,0,0,0-.3-.107.649.649,0,0,0-.094-.017ZM8.007,3.88h0a.244.244,0,0,0,.155,0V3.706h-.1c-.115-.01-.115-.1-.115-.261V2.759h.241V2.547H7.95V2.18l-.116.087v.3H7.689v.175h.145v.695a.554.554,0,0,0,0,.338A.183.183,0,0,0,8,3.88ZM5.734,2.441c-.256,0-.44.268-.46.666a.772.772,0,0,0,.157.566.344.344,0,0,0,.258.111H5.74a.535.535,0,0,0,.267-.071V3.551a.428.428,0,0,1-.26,0c-.19-.011-.29-.171-.29-.464l.637.086V3.068a.778.778,0,0,0-.147-.528.276.276,0,0,0-.2-.1Zm1.155.3a1.115,1.115,0,0,1,.056.42l.106.618h.155l.377-1.265H7.409l-.165.637a3.5,3.5,0,0,0-.1.416,3.722,3.722,0,0,0-.058-.425L6.98,2.494H6.858l-.193.648c-.012.042-.027.084-.041.125a.848.848,0,0,0-.065.271,1.2,1.2,0,0,1-.049-.416L6.423,2.46,6.23,2.451l.212,1.294h.145l.193-.6c.011-.039.025-.078.039-.116a.886.886,0,0,0,.067-.293ZM4.955,2.382h0L4.878,3.658l.174.01L5.12,2.383ZM3.815,1.8l.319,1.815L4.317,3.6l.561-1.759H4.7l-.27.869a6.2,6.2,0,0,0-.193.657A2.548,2.548,0,0,0,4.2,3.1a2.088,2.088,0,0,1-.053-.409L3.989,1.8Zm-.537.453c-.244,0-.428.274-.448.667a.746.746,0,0,0,.154.553.361.361,0,0,0,.272.114H3.3a.6.6,0,0,0,.262-.059v-.17a.5.5,0,0,1-.236.059H3.3c-.187-.011-.29-.176-.29-.463l.638.039a.35.35,0,0,0,0-.106.763.763,0,0,0-.141-.52.294.294,0,0,0-.207-.11Zm-.95-.028v.4l.049.878H2.54V2.711c.041-.184.133-.29.251-.29V2.209H2.743c-.12,0-.224.1-.271.271V2.228Zm-.772-.549a1.14,1.14,0,0,0-.165.008l-.1,1.806h.164L1.5,2.775h.173A.454.454,0,0,0,2.038,2.6a.608.608,0,0,0,.126-.376.565.565,0,0,0-.1-.377.434.434,0,0,0-.34-.164H1.719c-.054,0-.109,0-.164,0ZM11.149,3.9h-.012c-.161-.008-.261-.2-.261-.5l-.029-.029c.033-.17.121-.454.336-.454H11.2a.218.218,0,0,1,.158.073.594.594,0,0,1,.093.429C11.426,3.71,11.309,3.9,11.149,3.9Zm6.276-.319h0l-.491-.029C16.953,3.4,17,3.2,17.2,3.2h.014c.212.01.212.245.212.385Zm-2.637-.116h0l-.488-.03c.02-.172.07-.367.267-.367h.013c.212.01.212.242.212.395ZM5.96,2.953h0l-.492-.03c.021-.167.071-.357.267-.357h.013c.212.01.212.245.212.386ZM3.515,2.817h0l-.491-.029c.021-.172.072-.367.267-.367H3.3c.212.01.212.242.212.395ZM1.584,2.566a.264.264,0,0,1-.068-.009l.039-.725h.154a.3.3,0,0,1,.22.094A.356.356,0,0,1,2,2.2c-.018.234-.138.357-.347.357a.263.263,0,0,1-.069.009Z" transform="translate(206.483 136.348)" fill="url(#linear-gradient)"/>
      <path id="패스_3184" data-name="패스 3184" d="M81.568,98.073c1.4-2.183,4.414-3.342,6.182-3.864l1.352-.338h0a111.073,111.073,0,0,1,13.233-2.077c12.953-.773,21.144,1.526,25.973,3.738,5.1,2.666,6.761,6.356,7.273,8.017.077.3.155.589.2.879,2.193,11.137,6.848,72.906,8.384,93.818.048.908,0,4.462-3.477,5.245-5.8,1.439-16.614,3.4-33.575,4.037a14.681,14.681,0,0,1-5.264-.966l-15.1-7.552C80.4,195.436,80.4,177.431,80.4,177.431V103.366a10.751,10.751,0,0,1,1.168-5.293Z" transform="translate(-2.739 -3.107)" fill="none" stroke="#fff" stroke-linecap="round" stroke-linejoin="round" stroke-width="1"/>
      <path id="패스_3185" data-name="패스 3185" d="M107.823,173.162a.483.483,0,0,0,.522.454l4.607-.348a.493.493,0,0,0,.444-.531l-5.032-65.894a.483.483,0,0,0-.512-.464l-4.617.348a.483.483,0,0,0-.435.541Z" transform="translate(-3.503 -3.61)" fill="none" stroke="#fff" stroke-linecap="round" stroke-linejoin="round" stroke-width="1"/>
      <path id="패스_3186" data-name="패스 3186" d="M143.9,170.735l-3.583.27a.473.473,0,0,1-.512-.435l-4.83-63.3a.483.483,0,0,1,.435-.522l2.511-.184C139.471,116.422,141.982,146.307,143.9,170.735Z" transform="translate(-4.6 -3.616)" fill="none" stroke="#fff" stroke-linecap="round" stroke-linejoin="round" stroke-width="1"/>
      <path id="패스_3187" data-name="패스 3187" d="M133.115,99.216s-11.958-7.978-36.366-1.594L81.43,99.216" transform="translate(-2.774 -3.226)" fill="none" stroke="#fff" stroke-linecap="round" stroke-linejoin="round" stroke-width="1"/>
      <line id="선_109" data-name="선 109" x2="9.099" y2="110.045" transform="translate(93.299 94.367)" fill="none" stroke="#fff" stroke-linecap="round" stroke-linejoin="round" stroke-width="1"/>
      <path id="패스_3188" data-name="패스 3188" d="M114.51,115.225c0,4.936,3.429,8.925,7.66,8.925s7.66-3.989,7.66-8.925-3.429-8.925-7.66-8.925S114.51,110.3,114.51,115.225Z" transform="translate(-3.902 -3.607)" fill="none" stroke="#fff" stroke-linecap="round" stroke-linejoin="round" stroke-width="1"/>
      <path id="패스_3189" data-name="패스 3189" d="M115.639,114.343a3.614,3.614,0,1,0,1.614-3.572,3.612,3.612,0,0,0-1.614,3.572Z" transform="translate(-3.94 -3.739)" fill="none" stroke="#fff" stroke-linecap="round" stroke-linejoin="round" stroke-width="1"/>
      <path id="패스_3190" data-name="패스 3190" d="M117.43,115.023a1.4,1.4,0,1,0,1.381-1.6,1.507,1.507,0,0,0-1.381,1.6Z" transform="translate(-4.002 -3.85)" fill="none" stroke="#fff" stroke-linecap="round" stroke-linejoin="round" stroke-width="1"/>
      <ellipse id="타원_14" data-name="타원 14" cx="10.963" cy="12.364" rx="10.963" ry="12.364" transform="translate(111.718 161.372)" fill="none" stroke="#fff" stroke-linecap="round" stroke-linejoin="round" stroke-width="1"/>
      <path id="패스_3191" data-name="패스 3191" d="M122.981,191.173a8.877,8.877,0,0,0,1.7.145,9.659,9.659,0,0,0,0-19.318,9.35,9.35,0,0,0-9.031,7.727" transform="translate(-3.941 -5.847)" fill="none" stroke="#fff" stroke-linecap="round" stroke-linejoin="round" stroke-width="1"/>
      <path id="패스_3192" data-name="패스 3192" d="M119.71,181.084c0,2.9,1.932,5.264,4.308,5.264s4.308-2.357,4.308-5.264-1.932-5.264-4.308-5.264S119.71,178.177,119.71,181.084Z" transform="translate(-4.08 -5.977)" fill="none" stroke="#fff" stroke-linecap="round" stroke-linejoin="round" stroke-width="1"/>
      <path id="패스_3193" data-name="패스 3193" d="M121.86,182.781a1.381,1.381,0,1,0,1.352-1.681,1.536,1.536,0,0,0-1.352,1.681Z" transform="translate(-4.153 -6.157)" fill="none" stroke="#fff" stroke-linecap="round" stroke-linejoin="round" stroke-width="1"/>
      <path id="패스_3194" data-name="패스 3194" d="M231.39,197.79a23.494,23.494,0,0,1,18.11,12.557" transform="translate(-7.888 -6.726)" fill="none" stroke="#fff" stroke-linecap="round" stroke-linejoin="round" stroke-width="1"/>
      <path id="패스_3195" data-name="패스 3195" d="M229.79,196.375l.164-2.357,5.67-1.449s-.222-1.932.966-2.714-.522-2.492,1.516-4.24c0,0,.116-15.454,1.43-31.875" transform="translate(-7.833 -5.224)" fill="none" stroke="#fff" stroke-linecap="round" stroke-linejoin="round" stroke-width="1"/>
      <path id="패스_3196" data-name="패스 3196" d="M195.729,117.8s-.734,8.577,4.086,23.867" transform="translate(-6.67 -3.999)" fill="none" stroke="#fff" stroke-linecap="round" stroke-linejoin="round" stroke-width="1"/>
      <path id="패스_3197" data-name="패스 3197" d="M216.281,122a168.229,168.229,0,0,0-14.421,21.25" transform="translate(-6.881 -4.142)" fill="none" stroke="#fff" stroke-linecap="round" stroke-linejoin="round" stroke-width="1"/>
      <path id="패스_3198" data-name="패스 3198" d="M171.36,200.713c3.709,1.256,9.3,3.11,10.625,3.323,1.99.319,12.286-.541,18.091-.966s25.365-4.366,29.711-4.54" transform="translate(-5.841 -6.752)" fill="none" stroke="#fff" stroke-linecap="round" stroke-linejoin="round" stroke-width="1"/>
      <path id="패스_3199" data-name="패스 3199" d="M247.854,216.51c-8.007,3.651-34.772,1.516-37.883,1.362-3.5-.174-21.5-.85-21.5-.85a74.369,74.369,0,0,0-9.321,2.347,27.779,27.779,0,0,1-9.263,1.072l-1.8-.232" transform="translate(-5.729 -7.365)" fill="none" stroke="#fff" stroke-linecap="round" stroke-linejoin="round" stroke-width="1"/>
      <path id="패스_3200" data-name="패스 3200" d="M161.233,204.1a25.76,25.76,0,0,0-3.091,2.9s-6.375,6.414-5.853,8.432a1.835,1.835,0,0,0,2.782,1.227A37.745,37.745,0,0,1,158.7,213.1a21.625,21.625,0,0,0,2.9-2.9,50.961,50.961,0,0,0,5.67-4.076" transform="translate(-5.19 -6.942)" fill="none" stroke="#fff" stroke-linecap="round" stroke-linejoin="round" stroke-width="1"/>
      <path id="패스_3201" data-name="패스 3201" d="M156.869,216.34s-1.661,1.661-2.366,2.231-2.241,2.965-.637,4.1" transform="translate(-5.22 -7.359)" fill="none" stroke="#fff" stroke-linecap="round" stroke-linejoin="round" stroke-width="1"/>
      <path id="패스_3202" data-name="패스 3202" d="M154.18,222.808s1.864.966,4.385-2.434,3.11-2.9,3.11-2.9,2.434-1.6,2.956-2.9,4.617-2.434,4.955-2.6" transform="translate(-5.255 -7.21)" fill="none" stroke="#fff" stroke-linecap="round" stroke-linejoin="round" stroke-width="1"/>
      <path id="패스_3203" data-name="패스 3203" d="M158.37,221.563a4.829,4.829,0,0,0,3.439.251c3.274-.763,2.965-.763,2.965-.763a12.083,12.083,0,0,0,4.733-2.28c1.883-1.661,3.052-2.5,4.076-2.144" transform="translate(-5.398 -7.366)" fill="none" stroke="#fff" stroke-linecap="round" stroke-linejoin="round" stroke-width="1"/>
      <path id="패스_3204" data-name="패스 3204" d="M164.657,201.79s-5.6,2.82-7.727,3.072-2.83,3.11-2.83,3.11a14.846,14.846,0,0,1-2.714,1.71c-.425,0,.28,1.787,2.067,2.125" transform="translate(-5.156 -6.863)" fill="none" stroke="#fff" stroke-linecap="round" stroke-linejoin="round" stroke-width="1"/>
      <path id="패스_3205" data-name="패스 3205" d="M236.41,193.778s5.892-.9,10.094.174" transform="translate(-8.059 -6.578)" fill="none" stroke="#fff" stroke-linecap="round" stroke-linejoin="round" stroke-width="1"/>
      <path id="패스_3206" data-name="패스 3206" d="M157.871,180.46s-2.009.357-5.863,1.1-6.52.058-6.578,3.622c0,0,1.227,4.772,6.819,3.864l3.622-.367" transform="translate(-4.957 -6.136)" fill="none" stroke="#fff" stroke-linecap="round" stroke-linejoin="round" stroke-width="1"/>
      <path id="패스_3207" data-name="패스 3207" d="M175.64,201.338a6.325,6.325,0,0,0,.618-.705s6.259-6.433,4.144-7.727c0,0-1.12-.705-3.274,1.381" transform="translate(-5.987 -6.556)" fill="none" stroke="#fff" stroke-linecap="round" stroke-linejoin="round" stroke-width="1"/>
      <path id="패스_3208" data-name="패스 3208" d="M153.93,189.62a14.574,14.574,0,0,1,.589,3.564c.251,3.96.811,5.8,4.173,6.027l1.256.763a3.448,3.448,0,0,0,1.449,2.386" transform="translate(-5.247 -6.448)" fill="none" stroke="#fff" stroke-linecap="round" stroke-linejoin="round" stroke-width="1"/>
      <path id="패스_3209" data-name="패스 3209" d="M169.33,199.842s2.579-4.443,3.11-5.544,1.816-6.761,3.719-6.587" transform="translate(-5.772 -6.383)" fill="none" stroke="#fff" stroke-linecap="round" stroke-linejoin="round" stroke-width="1"/>
      <path id="패스_3210" data-name="패스 3210" d="M175.07,197.5c3.98-5.989,1.98-9.582,1.98-9.582" transform="translate(-5.967 -6.39)" fill="none" stroke="#fff" stroke-linecap="round" stroke-linejoin="round" stroke-width="1"/>
      <line id="선_110" data-name="선 110" x1="2.888" y2="4.173" transform="translate(162.467 187.528)" fill="none" stroke="#fff" stroke-linecap="round" stroke-linejoin="round" stroke-width="1"/>
      <path id="패스_3211" data-name="패스 3211" d="M163.09,197.366s5.593-8.094,6.761-9.205,1.372-1.874,2.811-1.642" transform="translate(-5.559 -6.341)" fill="none" stroke="#fff" stroke-linecap="round" stroke-linejoin="round" stroke-width="1"/>
      <path id="패스_3212" data-name="패스 3212" d="M173.451,187.25s.5,1.323-1.681,6.037" transform="translate(-5.855 -6.367)" fill="none" stroke="#fff" stroke-linecap="round" stroke-linejoin="round" stroke-width="1"/>
      <path id="패스_3213" data-name="패스 3213" d="M161.9,197.979s-1.768.647-1.265-.86,1.082-3.023,1.082-3.023,4.83-4.887,4.733-7.515c0,0-.58-4.308-4.83.908,0,0-2.618,3.014-5.071,5.419" transform="translate(-5.336 -6.287)" fill="none" stroke="#fff" stroke-linecap="round" stroke-linejoin="round" stroke-width="1"/>
      <path id="패스_3214" data-name="패스 3214" d="M159.24,180.4s5.216-.628,9.224,1.768" transform="translate(-5.428 -6.131)" fill="none" stroke="#fff" stroke-linecap="round" stroke-linejoin="round" stroke-width="1"/>
      <path id="패스_3215" data-name="패스 3215" d="M189.672,113.62c-7.9,2.173-20.7,8.558-23.79,27.335-4.549,27.673-3.506,28.977-3.922,33.575" transform="translate(-5.52 -3.856)" fill="none" stroke="#fff" stroke-linecap="round" stroke-linejoin="round" stroke-width="1"/>
      <path id="패스_3216" data-name="패스 3216" d="M161.724,177.59s-.261,1.1-.734,2.637" transform="translate(-5.487 -6.038)" fill="none" stroke="#fff" stroke-linecap="round" stroke-linejoin="round" stroke-width="1"/>
      <path id="패스_3217" data-name="패스 3217" d="M181.451,180.25a67.4,67.4,0,0,1-3.651,8.094" transform="translate(-6.061 -6.128)" fill="none" stroke="#fff" stroke-linecap="round" stroke-linejoin="round" stroke-width="1"/>
      <path id="패스_3218" data-name="패스 3218" d="M258.67,141.32a239.963,239.963,0,0,1,2.791,42.5" transform="translate(-8.818 -4.801)" fill="none" stroke="#fff" stroke-linecap="round" stroke-linejoin="round" stroke-width="1"/>
      <path id="패스_3219" data-name="패스 3219" d="M231.34,113a51.956,51.956,0,0,1,15.706,7.418" transform="translate(-7.886 -3.835)" fill="none" stroke="#fff" stroke-linecap="round" stroke-linejoin="round" stroke-width="1"/>
      <path id="패스_3220" data-name="패스 3220" d="M248.415,122.4c-2.8,1.642-6.819,6.761-8.355,22.216" transform="translate(-8.183 -4.156)" fill="none" stroke="#fff" stroke-linecap="round" stroke-linejoin="round" stroke-width="1"/>
      <path id="패스_3221" data-name="패스 3221" d="M236.945,115.49a52.092,52.092,0,0,0-5.226,2.743l-2.9,1.739a122.582,122.582,0,0,0-25.732,22.293" transform="translate(-6.923 -3.92)" fill="none" stroke="#fff" stroke-linecap="round" stroke-linejoin="round" stroke-width="1"/>
      <path id="패스_3222" data-name="패스 3222" d="M200.02,143.091a61.876,61.876,0,0,1-10.248-20.564l-1.932-7.447" transform="translate(-6.403 -3.906)" fill="none" stroke="#fff" stroke-linecap="round" stroke-linejoin="round" stroke-width="1"/>
      <path id="패스_3223" data-name="패스 3223" d="M235.159,117.09a17.183,17.183,0,0,1,4.337,4.4,64.4,64.4,0,0,0-7.36,2.82l-2.434,1.149c-15.145,7.408-27.7,19.048-27.7,19.048" transform="translate(-6.886 -3.975)" fill="none" stroke="#fff" stroke-linecap="round" stroke-linejoin="round" stroke-width="1"/>
      <path id="패스_3224" data-name="패스 3224" d="M201.2,144.5c-6.6-3.7-11.359-11.436-14.276-17.541,0,0-3.2-6.935-3.806-10.345" transform="translate(-6.242 -3.958)" fill="none" stroke="#fff" stroke-linecap="round" stroke-linejoin="round" stroke-width="1"/>
      <path id="패스_3225" data-name="패스 3225" d="M236.83,190.971s5.293-3.922,11.32-4.491" transform="translate(-8.073 -6.341)" fill="none" stroke="#fff" stroke-linecap="round" stroke-linejoin="round" stroke-width="1"/>
      <path id="패스_3226" data-name="패스 3226" d="M170.6,183.28a11.513,11.513,0,0,1,4.9,4.269" transform="translate(-5.815 -6.232)" fill="none" stroke="#fff" stroke-linecap="round" stroke-linejoin="round" stroke-width="1"/>
      <path id="패스_3227" data-name="패스 3227" d="M165.13,201.751s3.555-1.584,5.728-.966" transform="translate(-5.628 -6.824)" fill="none" stroke="#fff" stroke-linecap="round" stroke-linejoin="round" stroke-width="1"/>
      <path id="패스_3228" data-name="패스 3228" d="M169.1,182.39a8.693,8.693,0,0,1,2.55,3.864" transform="translate(-5.764 -6.201)" fill="none" stroke="#fff" stroke-linecap="round" stroke-linejoin="round" stroke-width="1"/>
      <path id="패스_3229" data-name="패스 3229" d="M287.941,81.42s-6.877-14.6-30-5.525" transform="translate(-8.793 -2.469)" fill="none" stroke="#fff" stroke-linecap="round" stroke-linejoin="round" stroke-width="1"/>
      <path id="패스_3230" data-name="패스 3230" d="M256.635,76.43s-16.971,9.321-11.089,27.432" transform="translate(-8.328 -2.588)" fill="none" stroke="#fff" stroke-linecap="round" stroke-linejoin="round" stroke-width="1"/>
      <path id="패스_3231" data-name="패스 3231" d="M246.08,107.11s1.777,5.38,1.874,7.457-.386,8.51,5.9,17.444,4.54,10.345,11.05,8.548c0,0,5.129-.155,8.229,12.17" transform="translate(-8.389 -3.634)" fill="none" stroke="#fff" stroke-linecap="round" stroke-linejoin="round" stroke-width="1"/>
      <path id="패스_3232" data-name="패스 3232" d="M246.28,105.1a10.9,10.9,0,0,1,3.265,5.158c.773,3.11,1.091,4.376,1.091,4.376s.077,3.757,4.018-.3,7.09-1.864,9.659,3.313,13.358,22.621,23.182,12.2" transform="translate(-8.396 -3.566)" fill="none" stroke="#fff" stroke-linecap="round" stroke-linejoin="round" stroke-width="1"/>
      <path id="패스_3233" data-name="패스 3233" d="M291.921,83.572a4.327,4.327,0,0,0-4.559-1.468c-3.8.85-7.109,2.386-7.032,5.8.068,3.014,1.526,5.8,4.318,6.24" transform="translate(-9.557 -2.776)" fill="none" stroke="#fff" stroke-linecap="round" stroke-linejoin="round" stroke-width="1"/>
      <path id="패스_3234" data-name="패스 3234" d="M267.65,168.788c2.579-6.935,9.475-21.173,23.346-24.148" transform="translate(-9.124 -4.914)" fill="none" stroke="#fff" stroke-linecap="round" stroke-linejoin="round" stroke-width="1"/>
      <path id="패스_3235" data-name="패스 3235" d="M295.637,182.92s.232,65-35.5,106.848" transform="translate(-8.868 -6.219)" fill="none" stroke="#fff" stroke-linecap="round" stroke-linejoin="round" stroke-width="1"/>
      <path id="패스_3236" data-name="패스 3236" d="M267.035,194a221.188,221.188,0,0,1-3.361,37.3L258.7,251.394l-1.111,3.864a129.585,129.585,0,0,1-17.879,35.458" transform="translate(-8.172 -6.597)" fill="none" stroke="#fff" stroke-linecap="round" stroke-linejoin="round" stroke-width="1"/>
      <path id="패스_3237" data-name="패스 3237" d="M267.26,213.58a47.58,47.58,0,0,0,24.5,6.394" transform="translate(-9.111 -7.265)" fill="none" stroke="#fff" stroke-linecap="round" stroke-linejoin="round" stroke-width="1"/>
      <path id="패스_3238" data-name="패스 3238" d="M268,206a48.42,48.42,0,0,0,24.756,6.4" transform="translate(-9.136 -7.006)" fill="none" stroke="#fff" stroke-linecap="round" stroke-linejoin="round" stroke-width="1"/>
      <path id="패스_3239" data-name="패스 3239" d="M300.976,187.32s-1.323,5.515-4.646,8.983" transform="translate(-10.102 -6.369)" fill="none" stroke="#fff" stroke-linecap="round" stroke-linejoin="round" stroke-width="1"/>
      <path id="패스_3240" data-name="패스 3240" d="M266.9,170.58s.618,9.05-3.284,14.373c-3.728,5.081-25.3,20.284-1.13,45.4" transform="translate(-8.563 -5.799)" fill="none" stroke="#fff" stroke-linecap="round" stroke-linejoin="round" stroke-width="1"/>
      <path id="패스_3241" data-name="패스 3241" d="M331.15,257.545v-.435" transform="translate(-11.289 -8.749)" fill="none" stroke="#fff" stroke-linecap="round" stroke-linejoin="round" stroke-width="1"/>
      <path id="패스_3242" data-name="패스 3242" d="M329.637,250.328c.773-33.478-12.19-50.053-12.19-50.053-26.871-36.463-31.459-100.01-31.459-100.01,0-1.381-.135-2.811-.261-4.182-.9-10.673,5.989-11.881,5.989-11.881,3.091-.715,9.659-.193,16.14,13.233a145.988,145.988,0,0,1,5.8,19.9,338.435,338.435,0,0,0,16.063,53.385c8.6,21.48,17.381,45.56,17.024,60.58" transform="translate(-9.738 -2.847)" fill="none" stroke="#fff" stroke-linecap="round" stroke-linejoin="round" stroke-width="1"/>
      <path id="패스_3243" data-name="패스 3243" d="M348.887,236.94v.435c0,.145,0-.145-.077-.425" transform="translate(-11.892 -8.061)" fill="none" stroke="#fff" stroke-linecap="round" stroke-linejoin="round" stroke-width="1"/>
      <path id="패스_3244" data-name="패스 3244" d="M348.271,235.127c-.676-3.149-2.956-11.832-9.611-24.717" transform="translate(-11.546 -7.157)" fill="none" stroke="#fff" stroke-linecap="round" stroke-linejoin="round" stroke-width="1"/>
      <path id="패스_3245" data-name="패스 3245" d="M338.433,209.986l-.2-.4.116.425" transform="translate(-11.531 -7.129)" fill="none" stroke="#fff" stroke-linecap="round" stroke-linejoin="round" stroke-width="1"/>
      <path id="패스_3246" data-name="패스 3246" d="M338.57,210.92c1.613,6.24,8.191,34.28.811,48.807" transform="translate(-11.542 -7.174)" fill="none" stroke="#fff" stroke-linecap="round" stroke-linejoin="round" stroke-width="1"/>
      <path id="패스_3247" data-name="패스 3247" d="M339.183,261.848l-.2.386V261.8" transform="translate(-11.556 -8.909)" fill="none" stroke="#fff" stroke-linecap="round" stroke-linejoin="round" stroke-width="1"/>
      <path id="패스_3248" data-name="패스 3248" d="M339.02,260.413a36.26,36.26,0,0,0-2.27-14.643" transform="translate(-11.48 -8.362)" fill="none" stroke="#fff" stroke-linecap="round" stroke-linejoin="round" stroke-width="1"/>
      <path id="패스_3249" data-name="패스 3249" d="M336.583,245.334c-.058-.145-.106-.28-.164-.415s0,.155,0,.435" transform="translate(-11.468 -8.332)" fill="none" stroke="#fff" stroke-linecap="round" stroke-linejoin="round" stroke-width="1"/>
      <path id="패스_3250" data-name="패스 3250" d="M336.09,246.26c-.367,2.492-1.516,8.1-4.83,12.451" transform="translate(-11.293 -8.379)" fill="none" stroke="#fff" stroke-linecap="round" stroke-linejoin="round" stroke-width="1"/>
      <path id="패스_3251" data-name="패스 3251" d="M330.99,259.507l-.29.328.087-.425" transform="translate(-11.274 -8.828)" fill="none" stroke="#fff" stroke-linecap="round" stroke-linejoin="round" stroke-width="1"/>
      <line id="선_111" data-name="선 111" y1="0.869" x2="0.164" transform="translate(319.571 249.124)" fill="none" stroke="#fff" stroke-linecap="round" stroke-linejoin="round" stroke-width="1"/>
      <line id="선_112" data-name="선 112" y1="0.425" x2="0.087" transform="translate(319.793 248.4)" fill="none" stroke="#fff" stroke-linecap="round" stroke-linejoin="round" stroke-width="1"/>
      <path id="패스_3252" data-name="패스 3252" d="M247.869,226.629c-21.684,8.49-64.715,14.286-114.189,14.286-71.332,0-129.16-12.025-129.16-26.852,0-10.432,28.62-19.473,70.434-23.906l3.545-.367" transform="translate(-0.152 -6.454)" fill="none" stroke="#fff" stroke-linecap="round" stroke-linejoin="round" stroke-width="1"/>
      <path id="패스_3253" data-name="패스 3253" d="M180.3,190.59c17.058,1.381,32.454,3.149,45.639,5.216" transform="translate(-6.146 -6.481)" fill="none" stroke="#fff" stroke-linecap="round" stroke-linejoin="round" stroke-width="1"/>
      <path id="패스_3254" data-name="패스 3254" d="M334.1,254.31c-1.8,14.15.782,31.179,14.836,48.083" transform="translate(-11.373 -8.654)" fill="none" stroke="#fff" stroke-linecap="round" stroke-linejoin="round" stroke-width="1"/>
      <path id="패스_3255" data-name="패스 3255" d="M254.9,227.89c-20.042,12.054-49.522,34.724-62.4,69.2" transform="translate(-6.562 -7.753)" fill="none" stroke="#fff" stroke-linecap="round" stroke-linejoin="round" stroke-width="1"/>
      <path id="패스_3256" data-name="패스 3256" d="M20,227.89c20.052,12.054,49.531,34.724,62.407,69.2,0,0,5.235,16.42,2.5,27.615" transform="translate(-0.68 -7.753)" fill="none" stroke="#fff" stroke-linecap="round" stroke-linejoin="round" stroke-width="1"/>
      <path id="패스_3257" data-name="패스 3257" d="M228.49,56.16s17.116,5.052,17.454,27.47" transform="translate(-7.789 -1.897)" fill="none" stroke="#fff" stroke-linecap="round" stroke-linejoin="round" stroke-width="1"/>
      <path id="패스_3258" data-name="패스 3258" d="M187.8,76.687q.116-.2.232-.377" transform="translate(-6.402 -2.584)" fill="none" stroke="#fff" stroke-linecap="round" stroke-linejoin="round" stroke-width="1"/>
      <path id="패스_3259" data-name="패스 3259" d="M188.52,74.793c17.048-27.374,36.386-19.55,36.386-19.55l1.381.512" transform="translate(-6.426 -1.831)" fill="none" stroke="#fff" stroke-linecap="round" stroke-linejoin="round" stroke-width="1"/>
      <line id="선_113" data-name="선 113" x2="0.415" y2="0.145" transform="translate(220.276 54.079)" fill="none" stroke="#fff" stroke-linecap="round" stroke-linejoin="round" stroke-width="1"/>
      <path id="패스_3260" data-name="패스 3260" d="M240.69,75a31.5,31.5,0,0,1,.763,13.04" transform="translate(-8.205 -2.54)" fill="none" stroke="#fff" stroke-linecap="round" stroke-linejoin="round" stroke-width="1"/>
      <path id="패스_3261" data-name="패스 3261" d="M240.079,89.2s-3.786,23.568-22.911,30.194a13.214,13.214,0,0,1-11.4-1.623" transform="translate(-7.014 -3.024)" fill="none" stroke="#fff" stroke-linecap="round" stroke-linejoin="round" stroke-width="1"/>
      <path id="패스_3262" data-name="패스 3262" d="M238.328,73.911s-7.891-4.83-15.261-1.082-9.659,15.86-26.446,14.489" transform="translate(-6.702 -2.417)" fill="none" stroke="#fff" stroke-linecap="round" stroke-linejoin="round" stroke-width="1"/>
      <path id="패스_3263" data-name="패스 3263" d="M238.426,73.976a14.885,14.885,0,0,0-10.779.753c-7.341,3.7-9.659,15.86-26.446,14.489" transform="translate(-6.858 -2.482)" fill="none" stroke="#fff" stroke-linecap="round" stroke-linejoin="round" stroke-width="1"/>
      <path id="패스_3264" data-name="패스 3264" d="M187.1,77.45s-9.659,15.329-3.149,26.079c0,0,2.27,4.83,9.292,7.177" transform="translate(-6.193 -2.623)" fill="none" stroke="#fff" stroke-linecap="round" stroke-linejoin="round" stroke-width="1"/>
      <path id="패스_3265" data-name="패스 3265" d="M244.059,103.89a53,53,0,0,1-4.289,10.084" transform="translate(-8.174 -3.525)" fill="none" stroke="#fff" stroke-linecap="round" stroke-linejoin="round" stroke-width="1"/>
      <path id="패스_3266" data-name="패스 3266" d="M175.222,150.42s-8.954,23.906,19.318,28.011" transform="translate(-5.927 -5.111)" fill="none" stroke="#fff" stroke-linecap="round" stroke-linejoin="round" stroke-width="1"/>
      <path id="패스_3267" data-name="패스 3267" d="M202.652,158.09c-.966,7.283.415,19.714,19.965,23.008" transform="translate(-6.9 -5.373)" fill="none" stroke="#fff" stroke-linecap="round" stroke-linejoin="round" stroke-width="1"/>
      <path id="패스_3268" data-name="패스 3268" d="M198.746,90.11s-.048.135-.126.406" transform="translate(-6.77 -3.055)" fill="none" stroke="#fff" stroke-linecap="round" stroke-linejoin="round" stroke-width="1"/>
      <path id="패스_3269" data-name="패스 3269" d="M198.263,91.38a70.829,70.829,0,0,0-2.647,23.182" transform="translate(-6.665 -3.098)" fill="none" stroke="#fff" stroke-linecap="round" stroke-linejoin="round" stroke-width="1"/>
      <path id="패스_3270" data-name="패스 3270" d="M195.65,115.86v.435" transform="translate(-6.669 -3.933)" fill="none" stroke="#fff" stroke-linecap="round" stroke-linejoin="round" stroke-width="1"/>
      <path id="패스_3271" data-name="패스 3271" d="M304.9,143.24l.058.435" transform="translate(-10.394 -4.866)" fill="none" stroke="#fff" stroke-linecap="round" stroke-linejoin="round" stroke-width="1"/>
      <path id="패스_3272" data-name="패스 3272" d="M305.08,144.59a150.332,150.332,0,0,0,16.71,48.3c12.6,22.931,13.523,42.326,13.6,46.614" transform="translate(-10.401 -4.912)" fill="none" stroke="#fff" stroke-linecap="round" stroke-linejoin="round" stroke-width="1"/>
      <path id="패스_3273" data-name="패스 3273" d="M336.46,243.34v.435" transform="translate(-11.471 -8.28)" fill="none" stroke="#fff" stroke-linecap="round" stroke-linejoin="round" stroke-width="1"/>
      <path id="패스_3274" data-name="패스 3274" d="M175.63,139.08a24.583,24.583,0,0,1,0,10.229" transform="translate(-5.987 -4.725)" fill="none" stroke="#fff" stroke-linecap="round" stroke-linejoin="round" stroke-width="1"/>
      <path id="패스_3275" data-name="패스 3275" d="M191.59,179.9a22.148,22.148,0,0,1,4.694,10.181" transform="translate(-6.531 -6.116)" fill="none" stroke="#fff" stroke-linecap="round" stroke-linejoin="round" stroke-width="1"/>
    </g>
  </g>
</svg>
